<?xml version="1.0" encoding="UTF-8"?>
<!--Generator: Apple Native CoreSVG 175-->
<!DOCTYPE svg
PUBLIC "-//W3C//DTD SVG 1.1//EN"
       "http://www.w3.org/Graphics/SVG/1.1/DTD/svg11.dtd">
<svg version="1.1" xmlns="http://www.w3.org/2000/svg" xmlns:xlink="http://www.w3.org/1999/xlink" width="3300" height="2200">
 <!--glyph: "uni10120C.medium", point size: 100.0, font version: "17.3d3e1", template writer version: "65.1"-->
 <g id="Notes">
  <rect height="2200" id="artboard" style="fill:white;opacity:1" width="3300" x="0" y="0"/>
  <line style="fill:none;stroke:black;opacity:1;stroke-width:0.5;" x1="263" x2="3036" y1="292" y2="292"/>
  <text style="stroke:none;fill:black;font-family:sans-serif;font-size:13;font-weight:bold;" transform="matrix(1 0 0 1 263 322)">Weight/Scale Variations</text>
  <text style="stroke:none;fill:black;font-family:sans-serif;font-size:13;text-anchor:middle;" transform="matrix(1 0 0 1 559.711 322)">Ultralight</text>
  <text style="stroke:none;fill:black;font-family:sans-serif;font-size:13;text-anchor:middle;" transform="matrix(1 0 0 1 856.422 322)">Thin</text>
  <text style="stroke:none;fill:black;font-family:sans-serif;font-size:13;text-anchor:middle;" transform="matrix(1 0 0 1 1153.13 322)">Light</text>
  <text style="stroke:none;fill:black;font-family:sans-serif;font-size:13;text-anchor:middle;" transform="matrix(1 0 0 1 1449.84 322)">Regular</text>
  <text style="stroke:none;fill:black;font-family:sans-serif;font-size:13;text-anchor:middle;" transform="matrix(1 0 0 1 1746.56 322)">Medium</text>
  <text style="stroke:none;fill:black;font-family:sans-serif;font-size:13;text-anchor:middle;" transform="matrix(1 0 0 1 2043.27 322)">Semibold</text>
  <text style="stroke:none;fill:black;font-family:sans-serif;font-size:13;text-anchor:middle;" transform="matrix(1 0 0 1 2339.98 322)">Bold</text>
  <text style="stroke:none;fill:black;font-family:sans-serif;font-size:13;text-anchor:middle;" transform="matrix(1 0 0 1 2636.69 322)">Heavy</text>
  <text style="stroke:none;fill:black;font-family:sans-serif;font-size:13;text-anchor:middle;" transform="matrix(1 0 0 1 2933.4 322)">Black</text>
  <line style="fill:none;stroke:black;opacity:1;stroke-width:0.5;" x1="263" x2="3036" y1="1903" y2="1903"/>
  <g transform="matrix(1 0 0 1 263 1933)">
   <path d="M9.24805 0.830078Q10.8691 0.830078 12.2949 0.214844Q13.7207-0.400391 14.8096-1.49414Q15.8984-2.58789 16.5186-4.01367Q17.1387-5.43945 17.1387-7.05078Q17.1387-8.66211 16.5186-10.0879Q15.8984-11.5137 14.8047-12.6074Q13.7109-13.7012 12.2852-14.3164Q10.8594-14.9316 9.23828-14.9316Q7.62695-14.9316 6.20117-14.3164Q4.77539-13.7012 3.69141-12.6074Q2.60742-11.5137 1.9873-10.0879Q1.36719-8.66211 1.36719-7.05078Q1.36719-5.43945 1.9873-4.01367Q2.60742-2.58789 3.69629-1.49414Q4.78516-0.400391 6.21094 0.214844Q7.63672 0.830078 9.24805 0.830078ZM9.24805-0.654297Q7.91992-0.654297 6.7627-1.14746Q5.60547-1.64062 4.73145-2.51953Q3.85742-3.39844 3.36426-4.56055Q2.87109-5.72266 2.87109-7.05078Q2.87109-8.37891 3.35938-9.54102Q3.84766-10.7031 4.72168-11.582Q5.5957-12.4609 6.75293-12.9541Q7.91016-13.4473 9.23828-13.4473Q10.5762-13.4473 11.7334-12.9541Q12.8906-12.4609 13.7695-11.582Q14.6484-10.7031 15.1465-9.54102Q15.6445-8.37891 15.6445-7.05078Q15.6445-5.72266 15.1514-4.56055Q14.6582-3.39844 13.7842-2.51953Q12.9102-1.64062 11.748-1.14746Q10.5859-0.654297 9.24805-0.654297ZM5.6543-7.05078Q5.6543-6.72852 5.85938-6.52832Q6.06445-6.32812 6.40625-6.32812L8.51562-6.32812L8.51562-4.20898Q8.51562-3.88672 8.71094-3.67676Q8.90625-3.4668 9.23828-3.4668Q9.56055-3.4668 9.77051-3.67676Q9.98047-3.88672 9.98047-4.20898L9.98047-6.32812L12.0898-6.32812Q12.4219-6.32812 12.627-6.52832Q12.832-6.72852 12.832-7.05078Q12.832-7.38281 12.627-7.58789Q12.4219-7.79297 12.0898-7.79297L9.98047-7.79297L9.98047-9.90234Q9.98047-10.2344 9.77051-10.4443Q9.56055-10.6543 9.23828-10.6543Q8.90625-10.6543 8.71094-10.4443Q8.51562-10.2344 8.51562-9.90234L8.51562-7.79297L6.40625-7.79297Q6.06445-7.79297 5.85938-7.58789Q5.6543-7.38281 5.6543-7.05078Z"/>
  </g>
  <g transform="matrix(1 0 0 1 281.867 1933)">
   <path d="M11.709 2.91016Q13.75 2.91016 15.5518 2.12891Q17.3535 1.34766 18.7305-0.0292969Q20.1074-1.40625 20.8887-3.20801Q21.6699-5.00977 21.6699-7.05078Q21.6699-9.0918 20.8887-10.8936Q20.1074-12.6953 18.7305-14.0723Q17.3535-15.4492 15.5469-16.2305Q13.7402-17.0117 11.6992-17.0117Q9.6582-17.0117 7.85645-16.2305Q6.05469-15.4492 4.68262-14.0723Q3.31055-12.6953 2.5293-10.8936Q1.74805-9.0918 1.74805-7.05078Q1.74805-5.00977 2.5293-3.20801Q3.31055-1.40625 4.6875-0.0292969Q6.06445 1.34766 7.86621 2.12891Q9.66797 2.91016 11.709 2.91016ZM11.709 1.25Q9.98047 1.25 8.47656 0.605469Q6.97266-0.0390625 5.83496-1.17676Q4.69727-2.31445 4.05762-3.81836Q3.41797-5.32227 3.41797-7.05078Q3.41797-8.7793 4.05762-10.2832Q4.69727-11.7871 5.83008-12.9297Q6.96289-14.0723 8.4668-14.7119Q9.9707-15.3516 11.6992-15.3516Q13.4277-15.3516 14.9316-14.7119Q16.4355-14.0723 17.5781-12.9297Q18.7207-11.7871 19.3652-10.2832Q20.0098-8.7793 20.0098-7.05078Q20.0098-5.32227 19.3701-3.81836Q18.7305-2.31445 17.5928-1.17676Q16.4551-0.0390625 14.9463 0.605469Q13.4375 1.25 11.709 1.25ZM7.17773-7.05078Q7.17773-6.69922 7.41211-6.47461Q7.64648-6.25 8.01758-6.25L10.8887-6.25L10.8887-3.36914Q10.8887-2.99805 11.1133-2.76855Q11.3379-2.53906 11.6895-2.53906Q12.0605-2.53906 12.29-2.76855Q12.5195-2.99805 12.5195-3.36914L12.5195-6.25L15.4004-6.25Q15.7715-6.25 16.001-6.47461Q16.2305-6.69922 16.2305-7.05078Q16.2305-7.42188 16.001-7.65137Q15.7715-7.88086 15.4004-7.88086L12.5195-7.88086L12.5195-10.752Q12.5195-11.1328 12.29-11.3623Q12.0605-11.5918 11.6895-11.5918Q11.3379-11.5918 11.1133-11.3574Q10.8887-11.123 10.8887-10.752L10.8887-7.88086L8.01758-7.88086Q7.63672-7.88086 7.40723-7.65137Q7.17773-7.42188 7.17773-7.05078Z"/>
  </g>
  <g transform="matrix(1 0 0 1 305.646 1933)">
   <path d="M14.9707 5.66406Q17.0605 5.66406 18.96 5.01465Q20.8594 4.36523 22.4512 3.19336Q24.043 2.02148 25.2197 0.429688Q26.3965-1.16211 27.0459-3.06641Q27.6953-4.9707 27.6953-7.05078Q27.6953-9.14062 27.0459-11.04Q26.3965-12.9395 25.2197-14.5312Q24.043-16.123 22.4512-17.2998Q20.8594-18.4766 18.9551-19.126Q17.0508-19.7754 14.9609-19.7754Q12.8711-19.7754 10.9717-19.126Q9.07227-18.4766 7.48535-17.2998Q5.89844-16.123 4.72168-14.5312Q3.54492-12.9395 2.90039-11.04Q2.25586-9.14062 2.25586-7.05078Q2.25586-4.9707 2.90527-3.06641Q3.55469-1.16211 4.72656 0.429688Q5.89844 2.02148 7.49023 3.19336Q9.08203 4.36523 10.9814 5.01465Q12.8809 5.66406 14.9707 5.66406ZM14.9707 3.84766Q13.1641 3.84766 11.5283 3.2959Q9.89258 2.74414 8.53516 1.74805Q7.17773 0.751953 6.17676-0.610352Q5.17578-1.97266 4.62891-3.6084Q4.08203-5.24414 4.08203-7.05078Q4.08203-8.86719 4.62891-10.5029Q5.17578-12.1387 6.17188-13.501Q7.16797-14.8633 8.52539-15.8594Q9.88281-16.8555 11.5186-17.4023Q13.1543-17.9492 14.9609-17.9492Q16.7773-17.9492 18.4131-17.4023Q20.0488-16.8555 21.4111-15.8594Q22.7734-14.8633 23.7695-13.501Q24.7656-12.1387 25.3174-10.5029Q25.8691-8.86719 25.8691-7.05078Q25.8789-5.24414 25.332-3.6084Q24.7852-1.97266 23.7842-0.610352Q22.7832 0.751953 21.4209 1.74805Q20.0586 2.74414 18.4229 3.2959Q16.7871 3.84766 14.9707 3.84766ZM9.19922-7.05078Q9.19922-6.66992 9.45801-6.4209Q9.7168-6.17188 10.1172-6.17188L14.0625-6.17188L14.0625-2.2168Q14.0625-1.81641 14.3115-1.55762Q14.5605-1.29883 14.9512-1.29883Q15.3516-1.29883 15.6104-1.55273Q15.8691-1.80664 15.8691-2.2168L15.8691-6.17188L19.8242-6.17188Q20.2246-6.17188 20.4785-6.4209Q20.7324-6.66992 20.7324-7.05078Q20.7324-7.46094 20.4785-7.71484Q20.2246-7.96875 19.8242-7.96875L15.8691-7.96875L15.8691-11.9141Q15.8691-12.3242 15.6104-12.583Q15.3516-12.8418 14.9512-12.8418Q14.5605-12.8418 14.3115-12.583Q14.0625-12.3242 14.0625-11.9141L14.0625-7.96875L10.1172-7.96875Q9.70703-7.96875 9.45312-7.71484Q9.19922-7.46094 9.19922-7.05078Z"/>
  </g>
  <text style="stroke:none;fill:black;font-family:sans-serif;font-size:13;font-weight:bold;" transform="matrix(1 0 0 1 263 1953)">Design Variations</text>
  <text style="stroke:none;fill:black;font-family:sans-serif;font-size:13;" transform="matrix(1 0 0 1 263 1971)">Symbols are supported in up to nine weights and three scales.</text>
  <text style="stroke:none;fill:black;font-family:sans-serif;font-size:13;" transform="matrix(1 0 0 1 263 1989)">For optimal layout with text and other symbols, vertically align</text>
  <text style="stroke:none;fill:black;font-family:sans-serif;font-size:13;" transform="matrix(1 0 0 1 263 2007)">symbols with the adjacent text.</text>
  <line style="fill:none;stroke:#00AEEF;stroke-width:0.5;opacity:1.0;" x1="776" x2="776" y1="1919" y2="1933"/>
  <g transform="matrix(1 0 0 1 776 1933)">
   <path d="M3.31055 0.15625Q3.70117 0.15625 3.91602-0.00976562Q4.13086-0.175781 4.26758-0.585938L5.52734-4.0332L11.2891-4.0332L12.5488-0.585938Q12.6855-0.175781 12.9004-0.00976562Q13.1152 0.15625 13.4961 0.15625Q13.8867 0.15625 14.1162-0.0585938Q14.3457-0.273438 14.3457-0.644531Q14.3457-0.869141 14.2383-1.17188L9.6582-13.3691Q9.48242-13.8184 9.17969-14.043Q8.87695-14.2676 8.4082-14.2676Q7.5-14.2676 7.17773-13.3789L2.59766-1.16211Q2.49023-0.859375 2.49023-0.634766Q2.49023-0.263672 2.70996-0.0537109Q2.92969 0.15625 3.31055 0.15625ZM6.00586-5.51758L8.37891-12.0898L8.42773-12.0898L10.8008-5.51758Z"/>
  </g>
  <line style="fill:none;stroke:#00AEEF;stroke-width:0.5;opacity:1.0;" x1="793.197" x2="793.197" y1="1919" y2="1933"/>
  <text style="stroke:none;fill:black;font-family:sans-serif;font-size:13;font-weight:bold;" transform="matrix(1 0 0 1 776 1953)">Margins</text>
  <text style="stroke:none;fill:black;font-family:sans-serif;font-size:13;" transform="matrix(1 0 0 1 776 1971)">Leading and trailing margins on the left and right side of each symbol</text>
  <text style="stroke:none;fill:black;font-family:sans-serif;font-size:13;" transform="matrix(1 0 0 1 776 1989)">can be adjusted by modifying the x-location of the margin guidelines.</text>
  <text style="stroke:none;fill:black;font-family:sans-serif;font-size:13;" transform="matrix(1 0 0 1 776 2007)">Modifications are automatically applied proportionally to all</text>
  <text style="stroke:none;fill:black;font-family:sans-serif;font-size:13;" transform="matrix(1 0 0 1 776 2025)">scales and weights.</text>
  <g transform="matrix(1 0 0 1 1289 1933)">
   <path d="M2.8418 1.86523L4.54102 3.57422Q5.18555 4.22852 5.90332 4.17969Q6.62109 4.13086 7.31445 3.35938L18.0078-8.42773L17.041-9.4043L6.42578 2.27539Q6.16211 2.57812 5.89355 2.61719Q5.625 2.65625 5.27344 2.30469L4.10156 1.14258Q3.75 0.791016 3.79395 0.522461Q3.83789 0.253906 4.14062-0.0195312L15.6152-10.8203L14.6387-11.7871L3.04688-0.898438Q2.30469-0.214844 2.25098 0.498047Q2.19727 1.21094 2.8418 1.86523ZM9.25781-16.3281Q8.94531-16.0254 8.90625-15.6348Q8.86719-15.2441 9.04297-14.9512Q9.21875-14.6777 9.55566-14.541Q9.89258-14.4043 10.3809-14.5215Q11.4746-14.7754 12.5977-14.7314Q13.7207-14.6875 14.7949-13.9844L14.209-12.5293Q13.9551-11.9043 14.0674-11.4404Q14.1797-10.9766 14.5801-10.5664L16.875-8.25195Q17.2363-7.88086 17.5781-7.82227Q17.9199-7.76367 18.3398-7.8418L19.4043-8.03711L20.0684-7.36328L20.0293-6.80664Q20-6.43555 20.1221-6.12305Q20.2441-5.81055 20.6055-5.44922L21.3672-4.70703Q21.7285-4.3457 22.1533-4.33105Q22.5781-4.31641 22.9297-4.66797L25.8398-7.58789Q26.1914-7.93945 26.1816-8.35449Q26.1719-8.76953 25.8105-9.13086L25.0391-9.89258Q24.6875-10.2539 24.3799-10.3857Q24.0723-10.5176 23.7109-10.4883L23.1348-10.4395L22.4902-11.0742L22.7344-12.1973Q22.832-12.6172 22.6953-12.9834Q22.5586-13.3496 22.1191-13.7891L19.9219-15.9766Q18.6719-17.2168 17.2607-17.8369Q15.8496-18.457 14.4189-18.4814Q12.9883-18.5059 11.665-17.959Q10.3418-17.4121 9.25781-16.3281ZM10.752-15.957Q11.6602-16.6211 12.7002-16.9043Q13.7402-17.1875 14.8047-17.085Q15.8691-16.9824 16.8701-16.5137Q17.8711-16.0449 18.7012-15.2051L21.1328-12.793Q21.3086-12.6172 21.3525-12.4512Q21.3965-12.2852 21.3379-12.0312L21.0156-10.5469L22.5195-9.0625L23.5059-9.12109Q23.6914-9.13086 23.7891-9.09668Q23.8867-9.0625 24.0332-8.91602L24.6094-8.33984L22.168-5.89844L21.5918-6.47461Q21.4453-6.62109 21.4062-6.71875Q21.3672-6.81641 21.377-7.01172L21.4453-7.98828L19.9512-9.47266L18.4277-9.21875Q18.1836-9.16992 18.042-9.2041Q17.9004-9.23828 17.7148-9.41406L15.7129-11.416Q15.5176-11.5918 15.4932-11.7529Q15.4688-11.9141 15.5859-12.1875L16.4648-14.2773Q15.293-15.3711 13.8281-15.791Q12.3633-16.2109 10.8398-15.7617Q10.7227-15.7324 10.6885-15.8057Q10.6543-15.8789 10.752-15.957Z"/>
  </g>
  <text style="stroke:none;fill:black;font-family:sans-serif;font-size:13;font-weight:bold;" transform="matrix(1 0 0 1 1289 1953)">Exporting</text>
  <text style="stroke:none;fill:black;font-family:sans-serif;font-size:13;" transform="matrix(1 0 0 1 1289 1971)">Symbols should be outlined when exporting to ensure the</text>
  <text style="stroke:none;fill:black;font-family:sans-serif;font-size:13;" transform="matrix(1 0 0 1 1289 1989)">design is preserved when submitting to Xcode.</text>
  <text id="template-version" style="stroke:none;fill:black;font-family:sans-serif;font-size:13;text-anchor:end;" transform="matrix(1 0 0 1 3036 1933)">Template v.2.0</text>
  <text style="stroke:none;fill:black;font-family:sans-serif;font-size:13;text-anchor:end;" transform="matrix(1 0 0 1 3036 1951)">Requires Xcode 12 or greater</text>
  <text id="descriptive-name" style="stroke:none;fill:black;font-family:sans-serif;font-size:13;text-anchor:end;" transform="matrix(1 0 0 1 3036 1969)">Generated from scooter</text>
  <text style="stroke:none;fill:black;font-family:sans-serif;font-size:13;text-anchor:end;" transform="matrix(1 0 0 1 3036 1987)">Typeset at 100 points</text>
  <text style="stroke:none;fill:black;font-family:sans-serif;font-size:13;" transform="matrix(1 0 0 1 263 726)">Small</text>
  <text style="stroke:none;fill:black;font-family:sans-serif;font-size:13;" transform="matrix(1 0 0 1 263 1156)">Medium</text>
  <text style="stroke:none;fill:black;font-family:sans-serif;font-size:13;" transform="matrix(1 0 0 1 263 1586)">Large</text>
 </g>
 <g id="Guides">
  <g id="H-reference" style="fill:#27AAE1;stroke:none;" transform="matrix(1 0 0 1 339 696)">
   <path d="M0.993347 0L3.6377 0L29.3282-67.1326L30.0301-67.1326L30.0301-70.459L28.1227-70.459ZM11.6882-24.4797L46.9818-24.4797L46.2311-26.7288L12.4382-26.7288ZM55.1193 0L57.7637 0L30.6381-70.459L29.4327-70.459L29.4327-67.1326Z"/>
  </g>
  <line id="Baseline-S" style="fill:none;stroke:#27AAE1;opacity:1;stroke-width:0.5;" x1="263" x2="3036" y1="696" y2="696"/>
  <line id="Capline-S" style="fill:none;stroke:#27AAE1;opacity:1;stroke-width:0.5;" x1="263" x2="3036" y1="625.541" y2="625.541"/>
  <g id="H-reference" style="fill:#27AAE1;stroke:none;" transform="matrix(1 0 0 1 339 1126)">
   <path d="M0.993347 0L3.6377 0L29.3282-67.1326L30.0301-67.1326L30.0301-70.459L28.1227-70.459ZM11.6882-24.4797L46.9818-24.4797L46.2311-26.7288L12.4382-26.7288ZM55.1193 0L57.7637 0L30.6381-70.459L29.4327-70.459L29.4327-67.1326Z"/>
  </g>
  <line id="Baseline-M" style="fill:none;stroke:#27AAE1;opacity:1;stroke-width:0.5;" x1="263" x2="3036" y1="1126" y2="1126"/>
  <line id="Capline-M" style="fill:none;stroke:#27AAE1;opacity:1;stroke-width:0.5;" x1="263" x2="3036" y1="1055.54" y2="1055.54"/>
  <g id="H-reference" style="fill:#27AAE1;stroke:none;" transform="matrix(1 0 0 1 339 1556)">
   <path d="M0.993347 0L3.6377 0L29.3282-67.1326L30.0301-67.1326L30.0301-70.459L28.1227-70.459ZM11.6882-24.4797L46.9818-24.4797L46.2311-26.7288L12.4382-26.7288ZM55.1193 0L57.7637 0L30.6381-70.459L29.4327-70.459L29.4327-67.1326Z"/>
  </g>
  <line id="Baseline-L" style="fill:none;stroke:#27AAE1;opacity:1;stroke-width:0.5;" x1="263" x2="3036" y1="1556" y2="1556"/>
  <line id="Capline-L" style="fill:none;stroke:#27AAE1;opacity:1;stroke-width:0.5;" x1="263" x2="3036" y1="1485.54" y2="1485.54"/>
  <line id="left-margin" style="fill:none;stroke:#00AEEF;stroke-width:0.5;opacity:1.0;" x1="1374.82" x2="1374.82" y1="1030.79" y2="1150.12"/>
  <line id="right-margin" style="fill:none;stroke:#00AEEF;stroke-width:0.5;opacity:1.0;" x1="1524.87" x2="1524.87" y1="1030.79" y2="1150.12"/>
 </g>
 <g id="Symbols">
  <g id="Black-L" transform="matrix(1 0 0 1 2824.43 1556)">
   <path d="M47.1645 35.9126Q55.7316 35.9126 62.7559 31.7381Q69.7803 27.5635 73.9542 20.5106Q78.1281 13.4576 78.1281 4.88932Q78.1281-3.67777 73.9542-10.7015Q69.7803-17.7253 62.7559-21.8998Q55.7316-26.0743 47.1645-26.0743Q38.5974-26.0743 31.5152-21.8998Q24.433-17.7253 20.2585-10.7015Q16.084-3.67777 16.084 4.88932Q16.084 13.4576 20.2585 20.5106Q24.433 27.5635 31.5152 31.7381Q38.5974 35.9126 47.1645 35.9126ZM47.1645 22.5627Q42.275 22.5627 38.248 20.1984Q34.2209 17.8341 31.856 13.8064Q29.4911 9.77875 29.4911 4.88932Q29.4911 0.00107171 31.856-3.99738Q34.2209-7.99584 38.248-10.3607Q42.275-12.7256 47.1645-12.7256Q52.0539-12.7256 56.0419-10.3607Q60.03-7.99584 62.4047-3.99738Q64.7794 0.00107171 64.7794 4.88932Q64.7794 9.74117 62.4047 13.7584Q60.03 17.7757 56.0419 20.1692Q52.0539 22.5627 47.1645 22.5627ZM47.1645 14.3858Q51.0977 14.3858 53.869 11.6334Q56.6402 8.881 56.6402 4.88932Q56.6402 0.898828 53.9086-1.84319Q51.177-4.58521 47.1645-4.58521Q43.1531-4.58521 40.3923-1.8828Q37.6315 0.819615 37.6107 4.83091Q37.5523 8.82259 40.3423 11.6042Q43.1323 14.3858 47.1645 14.3858ZM170.893 35.9126Q179.46 35.9126 186.484 31.7381Q193.508 27.5635 197.682 20.5106Q201.857 13.4576 201.857 4.88932Q201.857-3.67777 197.682-10.7015Q193.508-17.7253 186.484-21.8998Q179.46-26.0743 170.893-26.0743Q162.326-26.0743 155.254-21.8998Q148.181-17.7253 143.997-10.7015Q139.813-3.67777 139.813 4.88932Q139.813 13.4576 143.997 20.5106Q148.181 27.5635 155.254 31.7381Q162.326 35.9126 170.893 35.9126ZM170.893 22.5627Q166.004 22.5627 161.986 20.1984Q157.969 17.8341 155.595 13.8064Q153.22 9.77875 153.22 4.88932Q153.22 0.00107171 155.595-3.99738Q157.969-7.99584 161.986-10.3607Q166.004-12.7256 170.893-12.7256Q175.803-12.7256 179.791-10.3607Q183.779-7.99584 186.154-3.99738Q188.529 0.00107171 188.529 4.88932Q188.529 9.72035 186.154 13.748Q183.779 17.7757 179.791 20.1692Q175.803 22.5627 170.893 22.5627ZM170.893 14.4442Q174.825 14.4442 177.607 11.6626Q180.388 8.881 180.388 4.88932Q180.388 0.898828 177.646-1.84319Q174.904-4.58521 170.893-4.58521Q166.901-4.58521 164.141-1.8828Q161.381 0.819615 161.36 4.88932Q161.281 8.881 164.081 11.6626Q166.881 14.4442 170.893 14.4442ZM47.7473 12.5563L116.655 12.5563Q121.497 12.5563 123.478 11.5659Q125.46 10.5754 127.799 8.19318L164.085-28.8245L153.436-43.3441L117.406-3.63668Q117.041-3.21375 116.819-2.9957Q116.598-2.77765 116.036-2.77765L47.7473-2.77765ZM112.314-99.0122Q112.314-95.8291 114.577-93.5767Q116.839-91.3244 120.002-91.3244L137.754-91.3244Q138.716-91.3244 138.937-90.5242L162.773 5.37335L177.475 1.46207L151.051-100.653Q150.258-103.742 147.706-105.211Q145.153-106.679 141.382-106.679L120.002-106.679Q116.839-106.679 114.577-104.426Q112.314-102.173 112.314-99.0122Z"/>
  </g>
  <g id="Heavy-L" transform="matrix(1 0 0 1 2530.65 1556)">
   <path d="M45.283 34.0367Q53.3329 34.0367 59.9406 30.1117Q66.5484 26.1867 70.4705 19.5595Q74.3927 12.9322 74.3927 4.87676Q74.3927-3.17308 70.4705-9.77804Q66.5484-16.383 59.9406-20.308Q53.3329-24.233 45.283-24.233Q37.2331-24.233 30.5836-20.308Q23.934-16.383 20.009-9.77804Q16.084-3.17308 16.084 4.87676Q16.084 12.9322 20.009 19.5595Q23.934 26.1867 30.5836 30.1117Q37.2331 34.0367 45.283 34.0367ZM45.283 21.9405Q40.5612 21.9405 36.6735 19.66Q32.7859 17.3795 30.5025 13.4891Q28.2192 9.59863 28.2192 4.87676Q28.2192 0.160448 30.5025-3.70767Q32.7859-7.57579 36.6735-9.85909Q40.5612-12.1424 45.283-12.1424Q50.0049-12.1424 53.8579-9.85909Q57.7109-7.57579 60.0065-3.70767Q62.3022 0.160448 62.3022 4.87676Q62.3022 9.58424 60.0065 13.4596Q57.7109 17.3349 53.8579 19.6377Q50.0049 21.9405 45.283 21.9405ZM45.283 13.6707Q48.9196 13.6707 51.4832 11.1143Q54.0468 8.55793 54.0468 4.87676Q54.0468 1.20114 51.5206-1.34015Q48.9944-3.88144 45.283-3.88144Q41.5772-3.88144 39.0287-1.37753Q36.4802 1.12638 36.4501 4.83213Q36.4054 8.51331 38.9762 11.092Q41.547 13.6707 45.283 13.6707ZM166.891 34.0367Q174.94 34.0367 181.545 30.1117Q188.15 26.1867 192.075 19.5595Q196 12.9322 196 4.87676Q196-3.17308 192.075-9.77804Q188.15-16.383 181.545-20.308Q174.94-24.233 166.891-24.233Q158.841-24.233 152.203-20.308Q145.566-16.383 141.629-9.77804Q137.692-3.17308 137.692 4.87676Q137.692 12.9322 141.629 19.5595Q145.566 26.1867 152.203 30.1117Q158.841 34.0367 166.891 34.0367ZM166.891 21.9405Q162.169 21.9405 158.293 19.66Q154.418 17.3795 152.122 13.4891Q149.827 9.59863 149.827 4.87676Q149.827 0.160448 152.122-3.70767Q154.418-7.57579 158.293-9.85909Q162.169-12.1424 166.891-12.1424Q171.643-12.1424 175.496-9.85909Q179.349-7.57579 181.644-3.70767Q183.94 0.160448 183.94 4.87676Q183.94 9.554 181.644 13.4444Q179.349 17.3349 175.496 19.6377Q171.643 21.9405 166.891 21.9405ZM166.891 13.7153Q170.522 13.7153 173.1 11.1366Q175.679 8.55793 175.679 4.87676Q175.679 1.20114 173.138-1.34015Q170.596-3.88144 166.891-3.88144Q163.209-3.88144 160.664-1.37753Q158.118 1.12638 158.088 4.87676Q158.013 8.55793 160.596 11.1366Q163.179 13.7153 166.891 13.7153ZM46.1281 11.7804L114.453 11.7804Q118.598 11.7804 120.433 10.8716Q122.268 9.96274 124.446 7.71957L159.549-28.6875L150.734-42.344L115.059-2.85889Q114.672-2.42656 114.44-2.22671Q114.209-2.02686 113.652-2.02686L46.1281-2.02686ZM110.386-97.7939Q110.386-94.9103 112.427-92.8852Q114.467-90.8601 117.32-90.8601L134.782-90.8601Q135.706-90.8601 135.918-90.1018L159.574 5.62254L172.817 2.11609L146.832-99.1765Q146.108-101.983 143.794-103.34Q141.48-104.698 137.957-104.698L117.32-104.698Q114.467-104.698 112.427-102.67Q110.386-100.642 110.386-97.7939Z"/>
  </g>
  <g id="Bold-L" transform="matrix(1 0 0 1 2237.33 1556)">
   <path d="M43.074 31.8875Q50.5157 31.8875 56.6347 28.255Q62.7537 24.6224 66.3795 18.4955Q70.0054 12.3687 70.0054 4.91356Q70.0054-2.52819 66.3795-8.64059Q62.7537-14.753 56.6347-18.3855Q50.5157-22.018 43.074-22.018Q35.632-22.018 29.4905-18.3855Q23.349-14.753 19.7165-8.64059Q16.084-2.52819 16.084 4.91356Q16.084 12.3687 19.7165 18.4955Q23.349 24.6224 29.4905 28.255Q35.632 31.8875 43.074 31.8875ZM43.074 21.4105Q38.5075 21.4105 34.7517 19.2077Q30.9959 17.0048 28.7863 13.2425Q26.5768 9.4801 26.5768 4.91356Q26.5768 0.36014 28.7863-3.38761Q30.9959-7.13536 34.7517-9.34476Q38.5075-11.5542 43.074-11.5542Q47.6405-11.5542 51.3692-9.34476Q55.0979-7.13536 57.3198-3.38761Q59.5417 0.36014 59.5417 4.91356Q59.5417 9.489 57.3198 13.2323Q55.0979 16.9756 51.3692 19.1931Q47.6405 21.4105 43.074 21.4105ZM43.074 12.8465Q46.3492 12.8465 48.6591 10.5322Q50.9691 8.21795 50.9691 4.91356Q50.9691 1.62229 48.6928-0.673047Q46.4165-2.96839 43.074-2.96839Q39.7446-2.96839 37.4537-0.706589Q35.1628 1.55521 35.125 4.88436Q35.0958 8.18875 37.4012 10.5176Q39.7067 12.8465 43.074 12.8465ZM162.285 31.8875Q169.726 31.8875 175.839 28.255Q181.951 24.6224 185.584 18.4955Q189.216 12.3687 189.216 4.91356Q189.216-2.52819 185.584-8.64059Q181.951-14.753 175.839-18.3855Q169.726-22.018 162.285-22.018Q154.843-22.018 148.714-18.3855Q142.584-14.753 138.94-8.64059Q135.295-2.52819 135.295 4.91356Q135.295 12.3687 138.94 18.4955Q142.584 24.6224 148.714 28.255Q154.843 31.8875 162.285 31.8875ZM162.285 21.4105Q157.718 21.4105 153.975 19.2077Q150.231 17.0048 148.009 13.2425Q145.788 9.4801 145.788 4.91356Q145.788 0.36014 148.009-3.38761Q150.231-7.13536 153.975-9.34476Q157.718-11.5542 162.285-11.5542Q166.889-11.5542 170.618-9.34476Q174.347-7.13536 176.569-3.38761Q178.79 0.36014 178.79 4.91356Q178.79 9.4509 176.569 13.2132Q174.347 16.9756 170.618 19.1931Q166.889 21.4105 162.285 21.4105ZM162.285 12.8757Q165.547 12.8757 167.876 10.5468Q170.204 8.21795 170.204 4.91356Q170.204 1.62229 167.909-0.673047Q165.614-2.96839 162.285-2.96839Q158.98-2.96839 156.696-0.706589Q154.412 1.55521 154.374 4.91356Q154.306 8.21795 156.624 10.5468Q158.942 12.8757 162.285 12.8757ZM44.1375 10.8348L111.942 10.8348Q115.271 10.8348 116.903 10.0333Q118.535 9.23187 120.482 7.19512L154.349-28.6599L147.652-40.995L112.415-1.80148Q112.005-1.36128 111.765-1.18446Q111.526-1.00764 110.977-1.00764L44.1375-1.00764ZM108.198-96.5114Q108.198-94.019 109.95-92.2855Q111.703-90.5521 114.157-90.5521L131.384-90.5521Q132.278-90.5521 132.481-89.8325L156.011 5.88524L167.375 2.89321L141.853-97.549Q141.213-100.002 139.202-101.217Q137.192-102.433 134.014-102.433L114.157-102.433Q111.703-102.433 109.95-100.693Q108.198-98.9525 108.198-96.5114Z"/>
  </g>
  <g id="Semibold-L" transform="matrix(1 0 0 1 1942.96 1556)">
   <path d="M41.5511 30.4058Q48.5736 30.4058 54.3556 26.9749Q60.1376 23.544 63.5592 17.7621Q66.9808 11.9801 66.9808 4.93894Q66.9808-2.0836 63.5592-7.85643Q60.1376-13.6293 54.3556-17.0601Q48.5736-20.491 41.5511-20.491Q34.5282-20.491 28.737-17.0601Q22.9457-13.6293 19.5149-7.85643Q16.084-2.0836 16.084 4.93894Q16.084 11.9801 19.5149 17.7621Q22.9457 23.544 28.737 26.9749Q34.5282 30.4058 41.5511 30.4058ZM41.5511 21.0451Q37.0916 21.0451 33.4268 18.8958Q29.7619 16.7465 27.6032 13.0724Q25.4446 9.39839 25.4446 4.93894Q25.4446 0.497806 27.6032-3.16696Q29.7619-6.83173 33.4268-8.99019Q37.0916-11.1487 41.5511-11.1487Q46.0105-11.1487 49.6536-8.99019Q53.2966-6.83173 55.4676-3.16696Q57.6387 0.497806 57.6387 4.93894Q57.6387 9.42335 55.4676 13.0756Q53.2966 16.7279 49.6536 18.8865Q46.0105 21.0451 41.5511 21.0451ZM41.5511 12.2784Q44.5771 12.2784 46.7122 10.131Q48.8473 7.98356 48.8473 4.93894Q48.8473 1.91263 46.7433-0.213151Q44.6392-2.33894 41.5511-2.33894Q38.4813-2.33894 36.368-0.244046Q34.2546 1.85084 34.2114 4.92037Q34.1929 7.96499 36.3155 10.1217Q38.438 12.2784 41.5511 12.2784ZM159.109 30.4058Q166.132 30.4058 171.905 26.9749Q177.678 23.544 181.108 17.7621Q184.539 11.9801 184.539 4.93894Q184.539-2.0836 181.108-7.85643Q177.678-13.6293 171.905-17.0601Q166.132-20.491 159.109-20.491Q152.087-20.491 146.308-17.0601Q140.529-13.6293 137.086-7.85643Q133.642-2.0836 133.642 4.93894Q133.642 11.9801 137.086 17.7621Q140.529 23.544 146.308 26.9749Q152.087 30.4058 159.109 30.4058ZM159.109 21.0451Q154.65 21.0451 150.997 18.8958Q147.345 16.7465 145.174 13.0724Q143.003 9.39839 143.003 4.93894Q143.003 0.497806 145.174-3.16696Q147.345-6.83173 150.997-8.99019Q154.65-11.1487 159.109-11.1487Q163.612-11.1487 167.255-8.99019Q170.898-6.83173 173.069-3.16696Q175.24 0.497806 175.24 4.93894Q175.24 9.37982 173.069 13.0539Q170.898 16.7279 167.255 18.8865Q163.612 21.0451 159.109 21.0451ZM159.109 12.2969Q162.117 12.2969 164.274 10.1402Q166.43 7.98356 166.43 4.93894Q166.43 1.91263 164.305-0.213151Q162.179-2.33894 159.109-2.33894Q156.065-2.33894 153.961-0.244046Q151.856 1.85084 151.813 4.93894Q151.751 7.98356 153.886 10.1402Q156.021 12.2969 159.109 12.2969ZM42.7652 10.1829L110.21 10.1829Q112.977 10.1829 114.469 9.45545Q115.961 8.72802 117.75 6.83357L150.765-28.641L145.528-40.065L110.593-1.0725Q110.166-0.626876 109.922-0.465938Q109.677-0.305001 109.132-0.305001L42.7652-0.305001ZM106.689-95.6272Q106.689-93.4046 108.243-91.8722Q109.797-90.3398 111.976-90.3398L129.042-90.3398Q129.914-90.3398 130.112-89.6469L153.556 6.06634L163.623 3.42896L138.421-96.427Q137.839-98.6365 136.037-99.7539Q134.236-100.871 131.295-100.871L111.976-100.871Q109.797-100.871 108.243-99.3296Q106.689-97.788 106.689-95.6272Z"/>
  </g>
  <g id="Medium-L" transform="matrix(1 0 0 1 1648.02 1556)">
   <path d="M40.3964 29.2823Q47.1011 29.2823 52.6275 26.0043Q58.154 22.7264 61.4207 17.2059Q64.6874 11.6855 64.6874 4.95818Q64.6874-1.7465 61.4207-7.26186Q58.154-12.7772 52.6275-16.0552Q47.1011-19.3332 40.3964-19.3332Q33.6913-19.3332 28.1656-16.0552Q22.64-12.7772 19.362-7.26186Q16.084-1.7465 16.084 4.95818Q16.084 11.6855 19.362 17.2059Q22.64 22.7264 28.1656 26.0043Q33.6913 29.2823 40.3964 29.2823ZM40.3964 20.7681Q36.0181 20.7681 32.4221 18.6593Q28.8262 16.5506 26.7061 12.9435Q24.5861 9.33644 24.5861 4.95818Q24.5861 0.60219 26.7061-2.99966Q28.8262-6.6015 32.4221-8.72134Q36.0181-10.8412 40.3964-10.8412Q44.7746-10.8412 48.3527-8.72134Q51.9307-6.6015 54.0632-2.99966Q56.1957 0.60219 56.1957 4.95818Q56.1957 9.37356 54.0632 12.9568Q51.9307 16.5401 48.3527 18.6541Q44.7746 20.7681 40.3964 20.7681ZM40.3964 11.8475Q43.2335 11.8475 45.236 9.8267Q47.2385 7.80585 47.2385 4.95818Q47.2385 2.13278 45.2651 0.135561Q43.2917-1.86166 40.3964-1.86166Q37.5233-1.86166 35.5447 0.106673Q33.566 2.07501 33.5188 4.94767Q33.5082 7.79533 35.4922 9.82144Q37.4761 11.8475 40.3964 11.8475ZM156.702 29.2823Q163.406 29.2823 168.922 26.0043Q174.437 22.7264 177.715 17.2059Q180.993 11.6855 180.993 4.95818Q180.993-1.7465 177.715-7.26186Q174.437-12.7772 168.922-16.0552Q163.406-19.3332 156.702-19.3332Q149.997-19.3332 144.484-16.0552Q138.97-12.7772 135.68-7.26186Q132.389-1.7465 132.389 4.95818Q132.389 11.6855 135.68 17.2059Q138.97 22.7264 144.484 26.0043Q149.997 29.2823 156.702 29.2823ZM156.702 20.7681Q152.323 20.7681 148.74 18.6593Q145.156 16.5506 143.024 12.9435Q140.892 9.33644 140.892 4.95818Q140.892 0.60219 143.024-2.99966Q145.156-6.6015 148.74-8.72134Q152.323-10.8412 156.702-10.8412Q161.128-10.8412 164.706-8.72134Q168.284-6.6015 170.416-2.99966Q172.549 0.60219 172.549 4.95818Q172.549 9.32592 170.416 12.933Q168.284 16.5401 164.706 18.6541Q161.128 20.7681 156.702 20.7681ZM156.702 11.8581Q159.517 11.8581 161.543 9.83195Q163.569 7.80585 163.569 4.95818Q163.569 2.13278 161.572 0.135561Q159.574-1.86166 156.702-1.86166Q153.854-1.86166 151.886 0.106673Q149.919 2.07501 149.872 4.95818Q149.814 7.80585 151.81 9.83195Q153.806 11.8581 156.702 11.8581ZM41.7246 9.68859L108.897 9.68859Q111.237 9.68859 112.623 9.01728Q114.009 8.34597 115.679 6.55943L148.047-28.6266L143.917-39.3598L109.211-0.519763Q108.772-0.0700237 108.523 0.0788736Q108.275 0.227771 107.734 0.227771L41.7246 0.227771ZM105.545-94.9568Q105.545-92.9387 106.949-91.5587Q108.353-90.1788 110.323-90.1788L127.266-90.1788Q128.122-90.1788 128.316-89.5062L151.693 6.20366L160.778 3.83518L135.818-95.5762Q135.28-97.601 133.637-98.6441Q131.994-99.6872 129.234-99.6872L110.323-99.6872Q108.353-99.6872 106.949-98.2961Q105.545-96.905 105.545-94.9568Z"/>
  </g>
  <g id="Regular-L" transform="matrix(1 0 0 1 1353.62 1556)">
   <path d="M38.8902 27.8169Q45.1803 27.8169 50.3735 24.7384Q55.5667 21.6598 58.6314 16.4805Q61.696 11.3012 61.696 4.98328Q61.696-1.3068 58.6314-6.48632Q55.5667-11.6658 50.3735-14.7444Q45.1803-17.823 38.8902-17.823Q32.5997-17.823 27.4204-14.7444Q22.2411-11.6658 19.1625-6.48632Q16.084-1.3068 16.084 4.98328Q16.084 11.3012 19.1625 16.4805Q22.2411 21.6598 27.4204 24.7384Q32.5997 27.8169 38.8902 27.8169ZM38.8902 20.4067Q34.6179 20.4067 31.1118 18.3509Q27.6057 16.2952 25.536 12.7754Q23.4663 9.25562 23.4663 4.98328Q23.4663 0.738344 25.536-2.78143Q27.6057-6.30121 31.1118-8.37067Q34.6179-10.4401 38.8902-10.4401Q43.1626-10.4401 46.6558-8.37067Q50.1491-6.30121 52.2314-2.78143Q54.3136 0.738344 54.3136 4.98328Q54.3136 9.30863 52.2314 12.8019Q50.1491 16.2952 46.6558 18.3509Q43.1626 20.4067 38.8902 20.4067ZM38.8902 11.2856Q41.481 11.2856 43.3105 9.42983Q45.14 7.57404 45.14 4.98328Q45.14 2.41993 43.337 0.590403Q41.534-1.23912 38.8902-1.23912Q36.2739-1.23912 34.4708 0.564133Q32.6678 2.36739 32.6153 4.98328Q32.6153 7.57404 34.4183 9.42983Q36.2213 11.2856 38.8902 11.2856ZM153.561 27.8169Q159.851 27.8169 165.031 24.7384Q170.21 21.6598 173.289 16.4805Q176.367 11.3012 176.367 4.98328Q176.367-1.3068 173.289-6.48632Q170.21-11.6658 165.031-14.7444Q159.851-17.823 153.561-17.823Q147.271-17.823 142.104-14.7444Q136.937-11.6658 133.846-6.48632Q130.755-1.3068 130.755 4.98328Q130.755 11.3012 133.846 16.4805Q136.937 21.6598 142.104 24.7384Q147.271 27.8169 153.561 27.8169ZM153.561 20.4067Q149.289 20.4067 145.795 18.3509Q142.302 16.2952 140.22 12.7754Q138.138 9.25562 138.138 4.98328Q138.138 0.738344 140.22-2.78143Q142.302-6.30121 145.795-8.37067Q149.289-10.4401 153.561-10.4401Q157.887-10.4401 161.38-8.37067Q164.873-6.30121 166.955-2.78143Q169.038 0.738344 169.038 4.98328Q169.038 9.25562 166.955 12.7754Q164.873 16.2952 161.38 18.3509Q157.887 20.4067 153.561 20.4067ZM153.561 11.2856Q156.125 11.2856 157.98 9.42983Q159.836 7.57404 159.836 4.98328Q159.836 2.41993 158.007 0.590403Q156.177-1.23912 153.561-1.23912Q150.97-1.23912 149.181 0.564133Q147.392 2.36739 147.339 4.98328Q147.286 7.57404 149.102 9.42983Q150.917 11.2856 153.561 11.2856ZM40.3674 9.04386L107.185 9.04386Q108.968 9.04386 110.216 8.44576Q111.464 7.84765 112.976 6.20185L144.502-28.6078L141.815-38.4401L107.408 0.201201Q106.953 0.656306 106.7 0.789498Q106.446 0.92269 105.91 0.92269L40.3674 0.92269ZM104.053-94.0824Q104.053-92.331 105.261-91.1499Q106.468-89.9688 108.166-89.9688L124.95-89.9688Q125.784-89.9688 125.973-89.3227L149.264 6.38277L157.067 4.36504L132.423-94.4666Q131.943-96.2504 130.507-97.1967Q129.071-98.1429 126.545-98.1429L108.166-98.1429Q106.468-98.1429 105.261-96.9481Q104.053-95.7533 104.053-94.0824Z"/>
  </g>
  <g id="Light-L" transform="matrix(1 0 0 1 1057.74 1556)">
   <path d="M38.146 27.4543Q44.226 27.4543 49.257 24.4711Q54.288 21.4879 57.2476 16.4805Q60.2072 11.4731 60.2072 5.34594Q60.2072-0.734111 57.2476-5.74192Q54.288-10.7497 49.257-13.7329Q44.226-16.716 38.146-16.716Q32.0651-16.716 27.0577-13.7329Q22.0503-10.7497 19.0671-5.74192Q16.084-0.734111 16.084 5.34594Q16.084 11.4731 19.0671 16.4805Q22.0503 21.4879 27.0577 24.4711Q32.0651 27.4543 38.146 27.4543ZM38.146 21.5899Q33.6447 21.5899 29.9667 19.4197Q26.2888 17.2494 24.095 13.5483Q21.9012 9.84723 21.9012 5.34594Q21.9012 0.890976 24.095-2.81013Q26.2888-6.51124 29.9667-8.70463Q33.6447-10.898 38.146-10.898Q42.6473-10.898 46.3313-8.70463Q50.0154-6.51124 52.2027-2.81013Q54.3899 0.890976 54.3899 5.34594Q54.3899 9.88132 52.2027 13.5654Q50.0154 17.2494 46.3313 19.4197Q42.6473 21.5899 38.146 21.5899ZM38.146 11.1138Q40.5267 11.1138 42.2036 9.42021Q43.8805 7.72667 43.8805 5.34594Q43.8805 3.01154 42.2206 1.33464Q40.5608-0.342251 38.146-0.342251Q35.7775-0.342251 34.1176 1.31799Q32.4578 2.97824 32.4245 5.34594Q32.4245 7.72667 34.0843 9.42021Q35.7442 11.1138 38.146 11.1138ZM152.645 27.4543Q158.725 27.4543 163.733 24.4711Q168.741 21.4879 171.724 16.4805Q174.707 11.4731 174.707 5.34594Q174.707-0.734111 171.724-5.74192Q168.741-10.7497 163.733-13.7329Q158.725-16.716 152.645-16.716Q146.565-16.716 141.551-13.7329Q136.536-10.7497 133.56-5.74192Q130.583-0.734111 130.583 5.34594Q130.583 11.4731 133.56 16.4805Q136.536 21.4879 141.551 24.4711Q146.565 27.4543 152.645 27.4543ZM152.645 21.5899Q148.144 21.5899 144.459 19.4197Q140.775 17.2494 138.588 13.5483Q136.401 9.84723 136.401 5.34594Q136.401 0.890976 138.588-2.81013Q140.775-6.51124 144.459-8.70463Q148.144-10.898 152.645-10.898Q157.18-10.898 160.865-8.70463Q164.549-6.51124 166.736-2.81013Q168.923 0.890976 168.923 5.34594Q168.923 9.84723 166.736 13.5483Q164.549 17.2494 160.865 19.4197Q157.18 21.5899 152.645 21.5899ZM152.645 11.1138Q154.98 11.1138 156.673 9.42021Q158.367 7.72667 158.367 5.34594Q158.367 3.01154 156.69 1.33464Q155.013-0.342251 152.645-0.342251Q150.264-0.342251 148.628 1.31799Q146.991 2.97824 146.958 5.34594Q146.924 7.72667 148.577 9.42021Q150.23 11.1138 152.645 11.1138ZM39.0886 8.49041L106.841 8.49041Q108.358 8.49041 109.328 8.00678Q110.299 7.52315 111.469 6.24001L143.605-29.5047L141.396-36.7986L107.274 1.53705Q106.839 1.97324 106.604 2.08735Q106.369 2.20147 105.853 2.20147L39.0886 2.20147ZM103.824-94.655Q103.824-93.3045 104.755-92.3905Q105.686-91.4765 107.002-91.4765L124.434-91.4765Q125.345-91.4765 125.553-90.773L149.379 6.2683L155.406 4.68954L130.572-94.6384Q130.149-96.1548 128.97-96.9772Q127.792-97.7995 125.744-97.7995L107.002-97.7995Q105.686-97.7995 104.755-96.8623Q103.824-95.9252 103.824-94.655Z"/>
  </g>
  <g id="Thin-L" transform="matrix(1 0 0 1 762.125 1556)">
   <path d="M37.1617 26.9746Q42.9639 26.9746 47.7803 24.1176Q52.5967 21.2606 55.4174 16.4805Q58.2381 11.7004 58.2381 5.82559Q58.2381 0.0233194 55.4174-4.75738Q52.5967-9.53809 47.7803-12.3951Q42.9639-15.2521 37.1617-15.2521Q31.3582-15.2521 26.5781-12.3951Q21.798-9.53809 18.941-4.75738Q16.084 0.0233194 16.084 5.82559Q16.084 11.7004 18.941 16.4805Q21.798 21.2606 26.5781 24.1176Q31.3582 26.9746 37.1617 26.9746ZM37.1617 23.1548Q32.3576 23.1548 28.4523 20.8332Q24.547 18.5115 22.1891 14.5706Q19.8312 10.6297 19.8312 5.82559Q19.8312 1.09284 22.1891-2.84809Q24.547-6.78902 28.4523-9.14632Q32.3576-11.5036 37.1617-11.5036Q41.9657-11.5036 45.9021-9.14632Q49.8385-6.78902 52.1647-2.84809Q54.4909 1.09284 54.4909 5.82559Q54.4909 10.6387 52.1647 14.5751Q49.8385 18.5115 45.9021 20.8332Q41.9657 23.1548 37.1617 23.1548ZM37.1617 10.8864Q39.2646 10.8864 40.7396 9.40749Q42.2147 7.92854 42.2147 5.82559Q42.2147 3.79399 40.7442 2.31896Q39.2737 0.843938 37.1617 0.843938Q35.121 0.843938 33.6505 2.31504Q32.18 3.78614 32.1721 5.82559Q32.1721 7.92854 33.6426 9.40749Q35.1131 10.8864 37.1617 10.8864ZM151.433 26.9746Q157.236 26.9746 162.016 24.1176Q166.797 21.2606 169.654 16.4805Q172.511 11.7004 172.511 5.82559Q172.511 0.0233194 169.654-4.75738Q166.797-9.53809 162.016-12.3951Q157.236-15.2521 151.433-15.2521Q145.631-15.2521 140.819-12.3951Q136.006-9.53809 133.181-4.75738Q130.356 0.0233194 130.356 5.82559Q130.356 11.7004 133.181 16.4805Q136.006 21.2606 140.819 24.1176Q145.631 26.9746 151.433 26.9746ZM151.433 23.1548Q146.629 23.1548 142.692 20.8332Q138.755 18.5115 136.43 14.5706Q134.104 10.6297 134.104 5.82559Q134.104 1.09284 136.43-2.84809Q138.755-6.78902 142.692-9.14632Q146.629-11.5036 151.433-11.5036Q156.247-11.5036 160.183-9.14632Q164.119-6.78902 166.446-2.84809Q168.772 1.09284 168.772 5.82559Q168.772 10.6297 166.446 14.5706Q164.119 18.5115 160.183 20.8332Q156.247 23.1548 151.433 23.1548ZM151.433 10.8864Q153.465 10.8864 154.944 9.40749Q156.423 7.92854 156.423 5.82559Q156.423 3.79399 154.948 2.31896Q153.473 0.843938 151.433 0.843938Q149.331 0.843938 147.896 2.31504Q146.461 3.78614 146.453 5.82559Q146.444 7.92854 147.883 9.40749Q149.321 10.8864 151.433 10.8864ZM37.3973 7.75843L106.387 7.75843Q107.55 7.75843 108.155 7.4262Q108.759 7.09397 109.475 6.29048L142.419-30.6909L140.841-34.6277L107.098 3.30382Q106.688 3.71499 106.478 3.80387Q106.269 3.89275 105.777 3.89275L37.3973 3.89275ZM103.522-95.4125Q103.522-94.5921 104.086-94.0313Q104.651-93.4706 105.462-93.4706L123.753-93.4706Q124.764-93.4706 124.998-92.6912L149.53 6.1169L153.21 5.11873L128.124-94.8658Q127.776-96.0284 126.938-96.6869Q126.1-97.3453 124.683-97.3453L105.462-97.3453Q104.651-97.3453 104.086-96.7489Q103.522-96.1525 103.522-95.4125Z"/>
  </g>
  <g id="Ultralight-L" transform="matrix(1 0 0 1 465.976 1556)">
   <path d="M36.6575 26.7289Q42.3175 26.7289 47.0239 23.9366Q51.7304 21.1442 54.48 16.4805Q57.2296 11.8168 57.2296 6.07126Q57.2296 0.411271 54.48-4.25311Q51.7304-8.91749 47.0239-11.7099Q42.3175-14.5022 36.6575-14.5022Q30.9961-14.5022 26.3324-11.7099Q21.6687-8.91749 18.8764-4.25311Q16.084 0.411271 16.084 6.07126Q16.084 11.8168 18.8764 16.4805Q21.6687 21.1442 26.3324 23.9366Q30.9961 26.7289 36.6575 26.7289ZM36.6575 23.9563Q31.6983 23.9563 27.6766 21.5572Q23.6549 19.158 21.213 15.0942Q18.771 11.0305 18.771 6.07126Q18.771 1.19624 21.213-2.86753Q23.6549-6.93129 27.6766-9.37256Q31.6983-11.8138 36.6575-11.8138Q41.6167-11.8138 45.6823-9.37256Q49.748-6.93129 52.1453-2.86753Q54.5426 1.19624 54.5426 6.07126Q54.5426 11.0267 52.1453 15.0923Q49.748 19.158 45.6823 21.5572Q41.6167 23.9563 36.6575 23.9563ZM36.6575 10.77Q38.6182 10.77 39.9898 9.40098Q41.3614 8.03193 41.3614 6.07126Q41.3614 4.19476 39.9879 2.82313Q38.6144 1.4515 36.6575 1.4515Q34.7847 1.4515 33.4112 2.82572Q32.0377 4.19994 32.0429 6.07126Q32.0429 8.03193 33.4164 9.40098Q34.7899 10.77 36.6575 10.77ZM150.813 26.7289Q156.473 26.7289 161.137 23.9366Q165.802 21.1442 168.594 16.4805Q171.386 11.8168 171.386 6.07126Q171.386 0.411271 168.594-4.25311Q165.802-8.91749 161.137-11.7099Q156.473-14.5022 150.813-14.5022Q145.153-14.5022 140.444-11.7099Q135.735-8.91749 132.987-4.25311Q130.239 0.411271 130.239 6.07126Q130.239 11.8168 132.987 16.4805Q135.735 21.1442 140.444 23.9366Q145.153 26.7289 150.813 26.7289ZM150.813 23.9563Q145.854 23.9563 141.787 21.5572Q137.721 19.158 135.324 15.0942Q132.928 11.0305 132.928 6.07126Q132.928 1.19624 135.324-2.86753Q137.721-6.93129 141.787-9.37256Q145.854-11.8138 150.813-11.8138Q155.768-11.8138 159.834-9.37256Q163.9-6.93129 166.297-2.86753Q168.694 1.19624 168.694 6.07126Q168.694 11.0305 166.297 15.0942Q163.9 19.158 159.834 21.5572Q155.768 23.9563 150.813 23.9563ZM150.813 10.77Q152.689 10.77 154.058 9.40098Q155.427 8.03193 155.427 6.07126Q155.427 4.19476 154.056 2.82313Q152.684 1.4515 150.813 1.4515Q148.852 1.4515 147.521 2.82572Q146.189 4.19994 146.195 6.07126Q146.198 8.03193 147.527 9.40098Q148.856 10.77 150.813 10.77ZM36.531 7.38351L106.154 7.38351Q107.136 7.38351 107.553 7.12882Q107.971 6.87414 108.453 6.31633L141.811-31.2984L140.556-33.5157L107.007 4.20876Q106.61 4.6071 106.413 4.68306Q106.217 4.75902 105.738 4.75902L36.531 4.75902ZM103.366-95.8004Q103.366-95.2515 103.744-94.8717Q104.121-94.4919 104.674-94.4919L123.404-94.4919Q124.467-94.4919 124.713-93.6736L149.608 6.03935L152.086 5.33855L126.87-94.9822Q126.561-95.9637 125.897-96.5382Q125.234-97.1127 124.14-97.1127L104.674-97.1127Q104.121-97.1127 103.744-96.6908Q103.366-96.2689 103.366-95.8004Z"/>
  </g>
  <g id="Black-M" transform="matrix(1 0 0 1 2846.57 1126)">
   <path d="M38.0564 21.4503Q45.1098 21.4503 50.8879 18.0146Q56.666 14.5789 60.1019 8.77207Q63.5377 2.96526 63.5377-4.08783Q63.5377-11.1412 60.1019-16.9195Q56.666-22.6977 50.8879-26.1334Q45.1098-29.5691 38.0564-29.5691Q31.003-29.5691 25.1677-26.1334Q19.3323-22.6977 15.8966-16.9195Q12.4609-11.1412 12.4609-4.08783Q12.4609 2.96526 15.8966 8.77207Q19.3323 14.5789 25.1677 18.0146Q31.003 21.4503 38.0564 21.4503ZM38.0564 10.2395Q34.0933 10.2395 30.8303 8.32028Q27.5673 6.40105 25.6482 3.13815Q23.7291-0.124757 23.7291-4.08783Q23.7291-8.05119 25.6482-11.2855Q27.5673-14.5199 30.8303-16.439Q34.0933-18.3581 38.0564-18.3581Q42.0195-18.3581 45.2511-16.439Q48.4827-14.5199 50.4047-11.2855Q52.3267-8.05119 52.3267-4.08783Q52.3267-0.176365 50.4047 3.08379Q48.4827 6.34395 45.2511 8.29173Q42.0195 10.2395 38.0564 10.2395ZM38.0564 3.80095Q41.3302 3.80095 43.635 1.52202Q45.9397-0.756919 45.9397-4.08783Q45.9397-7.41903 43.6663-9.69522Q41.3928-11.9714 38.0564-11.9714Q34.7197-11.9714 32.4177-9.72651Q30.1157-7.48162 30.1103-4.14493Q30.0532-0.814015 32.3837 1.49347Q34.7142 3.80095 38.0564 3.80095ZM135.714 21.4503Q142.767 21.4503 148.546 18.0146Q154.324 14.5789 157.76 8.77207Q161.195 2.96526 161.195-4.08783Q161.195-11.1412 157.76-16.9195Q154.324-22.6977 148.546-26.1334Q142.767-29.5691 135.714-29.5691Q128.661-29.5691 122.828-26.1334Q116.996-22.6977 113.557-16.9195Q110.118-11.1412 110.118-4.08783Q110.118 2.96526 113.557 8.77207Q116.996 14.5789 122.828 18.0146Q128.661 21.4503 135.714 21.4503ZM135.714 10.2395Q131.751 10.2395 128.491 8.32028Q125.231 6.40105 123.309 3.13815Q121.387-0.124757 121.387-4.08783Q121.387-8.05119 123.309-11.2855Q125.231-14.5199 128.491-16.439Q131.751-18.3581 135.714-18.3581Q139.682-18.3581 142.914-16.439Q146.146-14.5199 148.068-11.2855Q149.99-8.05119 149.99-4.08783Q149.99-0.181854 148.068 3.08105Q146.146 6.34395 142.914 8.29173Q139.682 10.2395 135.714 10.2395ZM135.714 3.85805Q138.988 3.85805 141.295 1.55057Q143.603-0.756919 143.603-4.08783Q143.603-7.41903 141.327-9.69522Q139.051-11.9714 135.714-11.9714Q132.383-11.9714 130.081-9.72651Q127.779-7.48162 127.773-4.08783Q127.711-0.756919 130.044 1.55057Q132.378 3.85805 135.714 3.85805ZM38.2102 2.38402L92.2239 2.38402Q96.5365 2.38402 98.1605 1.56204Q99.7844 0.740067 101.69-1.17592L130.9-30.5066L121.139-42.1533L92.9578-11.2407Q92.6979-10.9237 92.5367-10.7417Q92.3754-10.5597 91.939-10.5597L38.2102-10.5597ZM88.64-85.7693Q88.64-83.1 90.5468-81.196Q92.4536-79.2919 95.1173-79.2919L109.209-79.2919Q109.997-79.2919 110.178-78.6283L128.872-4.00244L141.275-7.32112L120.401-87.208Q119.735-89.8078 117.588-91.0244Q115.44-92.2411 112.369-92.2411L95.1173-92.2411Q92.4536-92.2411 90.5468-90.3372Q88.64-88.4333 88.64-85.7693Z"/>
  </g>
  <g id="Heavy-M" transform="matrix(1 0 0 1 2552.65 1126)">
   <path d="M36.2858 19.65Q42.8529 19.65 48.2388 16.4494Q53.6246 13.2488 56.824 7.84231Q60.0235 2.43582 60.0235-4.13357Q60.0235-10.7007 56.824-16.0854Q53.6246-21.4701 48.2388-24.6707Q42.8529-27.8712 36.2858-27.8712Q29.7187-27.8712 24.2904-24.6707Q18.8621-21.4701 15.6615-16.0854Q12.4609-10.7007 12.4609-4.13357Q12.4609 2.43582 15.6615 7.84231Q18.8621 13.2488 24.2904 16.4494Q29.7187 19.65 36.2858 19.65ZM36.2858 9.52217Q32.5077 9.52217 29.3968 7.6954Q26.2859 5.86863 24.458 2.75661Q22.6301-0.355419 22.6301-4.13357Q22.6301-7.90947 24.458-10.9997Q26.2859-14.0899 29.3968-15.9178Q32.5077-17.7457 36.2858-17.7457Q40.064-17.7457 43.146-15.9178Q46.228-14.0899 48.063-10.9997Q49.898-7.90947 49.898-4.13357Q49.898-0.382611 48.063 2.7212Q46.228 5.82501 43.146 7.67359Q40.064 9.52217 36.2858 9.52217ZM36.2858 3.11767Q39.289 3.11767 41.4048 1.01543Q43.5207-1.08681 43.5207-4.13357Q43.5207-7.17807 41.4349-9.27212Q39.349-11.3662 36.2858-11.3662Q33.2249-11.3662 31.1173-9.30212Q29.0096-7.23809 28.9932-4.17719Q28.9496-1.13044 31.0791 0.993615Q33.2085 3.11767 36.2858 3.11767ZM131.886 19.65Q138.453 19.65 143.837 16.4494Q149.222 13.2488 152.423 7.84231Q155.623 2.43582 155.623-4.13357Q155.623-10.7007 152.423-16.0854Q149.222-21.4701 143.837-24.6707Q138.453-27.8712 131.886-27.8712Q125.319-27.8712 119.897-24.6707Q114.476-21.4701 111.268-16.0854Q108.061-10.7007 108.061-4.13357Q108.061 2.43582 111.268 7.84231Q114.476 13.2488 119.897 16.4494Q125.319 19.65 131.886 19.65ZM131.886 9.52217Q128.107 9.52217 125.004 7.6954Q121.9 5.86863 120.065 2.75661Q118.23-0.355419 118.23-4.13357Q118.23-7.90947 120.065-10.9997Q121.9-14.0899 125.004-15.9178Q128.107-17.7457 131.886-17.7457Q135.68-17.7457 138.762-15.9178Q141.844-14.0899 143.679-10.9997Q145.514-7.90947 145.514-4.13357Q145.514-0.39904 143.679 2.71298Q141.844 5.82501 138.762 7.67359Q135.68 9.52217 131.886 9.52217ZM131.886 3.16129Q134.887 3.16129 137.011 1.03724Q139.135-1.08681 139.135-4.13357Q139.135-7.17807 137.041-9.27212Q134.947-11.3662 131.886-11.3662Q128.839-11.3662 126.732-9.30212Q124.626-7.23809 124.609-4.13357Q124.549-1.08681 126.686 1.03724Q128.822 3.16129 131.886 3.16129ZM36.7453 1.67656L90.1028 1.67656Q93.7598 1.67656 95.2658 0.923821Q96.7718 0.171078 98.5502-1.64243L126.549-30.2899L118.536-41.3271L90.6762-10.6036Q90.3919-10.2756 90.2197-10.1097Q90.0475-9.94371 89.6137-9.94371L36.7453-9.94371ZM86.7767-84.5255Q86.7767-82.1121 88.4915-80.4055Q90.2063-78.6989 92.6033-78.6989L106.351-78.6989Q107.095-78.6989 107.265-78.0815L125.734-3.74828L136.875-6.71171L116.447-85.7488Q115.843-88.0971 113.905-89.2164Q111.967-90.3356 109.095-90.3356L92.6033-90.3356Q90.2063-90.3356 88.4915-88.6279Q86.7767-86.9202 86.7767-84.5255Z"/>
  </g>
  <g id="Bold-M" transform="matrix(1 0 0 1 2259.05 1126)">
   <path d="M34.3052 17.6361Q40.3283 17.6361 45.2753 14.6985Q50.2223 11.7609 53.1573 6.80225Q56.0923 1.84356 56.0923-4.18473Q56.0923-10.2079 53.1573-15.1523Q50.2223-20.0968 45.2753-23.0343Q40.3283-25.9719 34.3052-25.9719Q28.282-25.9719 23.309-23.0343Q18.3361-20.0968 15.3985-15.1523Q12.4609-10.2079 12.4609-4.18473Q12.4609 1.84356 15.3985 6.80225Q18.3361 11.7609 23.309 14.6985Q28.282 17.6361 34.3052 17.6361ZM34.3052 8.71972Q30.7339 8.71972 27.7932 6.99638Q24.8525 5.27304 23.1266 2.3298Q21.4007-0.613447 21.4007-4.18473Q21.4007-7.75093 23.1266-10.6799Q24.8525-13.6089 27.7932-15.3348Q30.7339-17.0606 34.3052-17.0606Q37.8765-17.0606 40.7911-15.3348Q43.7058-13.6089 45.4434-10.6799Q47.1811-7.75093 47.1811-4.18473Q47.1811-0.613327 45.4434 2.31558Q43.7058 5.24449 40.7911 6.98211Q37.8765 8.71972 34.3052 8.71972ZM34.3052 2.35331Q37.0055 2.35331 38.9101 0.448731Q40.8147-1.45585 40.8147-4.18473Q40.8147-6.90853 38.9387-8.79882Q37.0628-10.6891 34.3052-10.6891Q31.5527-10.6891 29.6625-8.82739Q27.7723-6.96566 27.7437-4.21328Q27.7151-1.4844 29.6197 0.434457Q31.5242 2.35331 34.3052 2.35331ZM127.603 17.6361Q133.626 17.6361 138.571 14.6985Q143.515 11.7609 146.453 6.80225Q149.39 1.84356 149.39-4.18473Q149.39-10.2079 146.453-15.1523Q143.515-20.0968 138.571-23.0343Q133.626-25.9719 127.603-25.9719Q121.58-25.9719 116.619-23.0343Q111.658-20.0968 108.708-15.1523Q105.759-10.2079 105.759-4.18473Q105.759 1.84356 108.708 6.80225Q111.658 11.7609 116.619 14.6985Q121.58 17.6361 127.603 17.6361ZM127.603 8.71972Q124.032 8.71972 121.103 6.99638Q118.174 5.27304 116.436 2.3298Q114.699-0.613447 114.699-4.18473Q114.699-7.75093 116.436-10.6799Q118.174-13.6089 121.103-15.3348Q124.032-17.0606 127.603-17.0606Q131.203-17.0606 134.118-15.3348Q137.032-13.6089 138.77-10.6799Q140.508-7.75093 140.508-4.18473Q140.508-0.641995 138.77 2.30125Q137.032 5.24449 134.118 6.98211Q131.203 8.71972 127.603 8.71972ZM127.603 2.38186Q130.298 2.38186 132.217 0.463005Q134.136-1.45585 134.136-4.18473Q134.136-6.90853 132.246-8.79882Q130.356-10.6891 127.603-10.6891Q124.874-10.6891 122.987-8.82739Q121.099-6.96566 121.07-4.18473Q121.013-1.45585 122.929 0.463005Q124.846 2.38186 127.603 2.38186ZM35.1066 0.88517L87.73 0.88517Q90.6535 0.88517 92.0276 0.209876Q93.4017-0.465417 95.0382-2.16428L121.681-30.0474L115.624-40.4028L88.1238-9.89088Q87.8122-9.55069 87.6279-9.40266Q87.4435-9.25464 87.0124-9.25464L35.1066-9.25464ZM84.6924-83.1341Q84.6924-81.0069 86.1924-79.5212Q87.6924-78.0355 89.7909-78.0355L103.153-78.0355Q103.849-78.0355 104.007-77.4698L122.224-3.46396L131.953-6.02999L112.025-84.1165Q111.49-86.1836 109.786-87.1938Q108.082-88.204 105.433-88.204L89.7909-88.204Q87.6924-88.204 86.1924-86.7158Q84.6924-85.2276 84.6924-83.1341Z"/>
  </g>
  <g id="Semibold-M" transform="matrix(1 0 0 1 1964.49 1126)">
   <path d="M32.9398 16.2477Q38.5879 16.2477 43.2323 13.4914Q47.8768 10.7352 50.6295 6.08523Q53.3821 1.43527 53.3821-4.22001Q53.3821-9.86812 50.6295-14.5091Q47.8768-19.15 43.2323-21.9063Q38.5879-24.6625 32.9398-24.6625Q27.2915-24.6625 22.6325-21.9063Q17.9734-19.15 15.2172-14.5091Q12.4609-9.86812 12.4609-4.22001Q12.4609 1.43527 15.2172 6.08523Q17.9734 10.7352 22.6325 13.4914Q27.2915 16.2477 32.9398 16.2477ZM32.9398 8.16652Q29.5111 8.16652 26.6877 6.51448Q23.8643 4.86245 22.2087 2.03556Q20.5531-0.791329 20.5531-4.22001Q20.5531-7.64164 22.2087-10.4595Q23.8643-13.2773 26.6877-14.9328Q29.5111-16.5884 32.9398-16.5884Q36.3684-16.5884 39.1677-14.9328Q41.967-13.2773 43.6375-10.4595Q45.3081-7.64164 45.3081-4.22001Q45.3081-0.772382 43.6375 2.03595Q41.967 4.84429 39.1677 6.5054Q36.3684 8.16652 32.9398 8.16652ZM32.9398 1.82637Q35.4313 1.82637 37.1902 0.0580542Q38.9491-1.71026 38.9491-4.22001Q38.9491-6.72271 37.2179-8.47253Q35.4866-10.2224 32.9398-10.2224Q30.4-10.2224 28.6596-8.5001Q26.9193-6.77785 26.8823-4.23816Q26.8641-1.72842 28.6135 0.0489758Q30.363 1.82637 32.9398 1.82637ZM124.651 16.2477Q130.299 16.2477 134.94 13.4914Q139.581 10.7352 142.337 6.08523Q145.093 1.43527 145.093-4.22001Q145.093-9.86812 142.337-14.5091Q139.581-19.15 134.94-21.9063Q130.299-24.6625 124.651-24.6625Q119.003-24.6625 114.359-21.9063Q109.714-19.15 106.943-14.5091Q104.172-9.86812 104.172-4.22001Q104.172 1.43527 106.943 6.08523Q109.714 10.7352 114.359 13.4914Q119.003 16.2477 124.651 16.2477ZM124.651 8.16652Q121.222 8.16652 118.414 6.51448Q115.605 4.86245 113.935 2.03556Q112.264-0.791329 112.264-4.22001Q112.264-7.64164 113.935-10.4595Q115.605-13.2773 118.414-14.9328Q121.222-16.5884 124.651-16.5884Q128.117-16.5884 130.916-14.9328Q133.715-13.2773 135.386-10.4595Q137.056-7.64164 137.056-4.22001Q137.056-0.809486 135.386 2.0174Q133.715 4.84429 130.916 6.5054Q128.117 8.16652 124.651 8.16652ZM124.651 1.84452Q127.135 1.84452 128.913 0.0671325Q130.69-1.71026 130.69-4.22001Q130.69-6.72271 128.94-8.47253Q127.191-10.2224 124.651-10.2224Q122.141-10.2224 120.404-8.5001Q118.667-6.77785 118.63-4.22001Q118.575-1.71026 120.34 0.0671325Q122.104 1.84452 124.651 1.84452ZM33.9769 0.339587L86.0942 0.339587Q88.5121 0.339587 89.7953-0.282313Q91.0784-0.904213 92.6171-2.52404L118.326-29.8803L113.617-39.7656L86.3642-9.39955Q86.0339-9.05093 85.841-8.91526Q85.6482-8.7796 85.2192-8.7796L33.9769-8.7796ZM83.2555-82.1749Q83.2555-80.2449 84.6074-78.9116Q85.9593-77.5782 87.8521-77.5782L100.949-77.5782Q101.611-77.5782 101.761-77.0481L119.804-3.26796L128.561-5.56002L108.976-82.9912Q108.488-84.8644 106.946-85.7994Q105.404-86.7345 102.908-86.7345L87.8521-86.7345Q85.9593-86.7345 84.6074-85.3976Q83.2555-84.0607 83.2555-82.1749Z"/>
  </g>
  <g id="Medium-M" transform="matrix(1 0 0 1 1669.41 1126)">
   <path d="M31.9044 15.195Q37.2682 15.195 41.6833 12.5762Q46.0983 9.95744 48.7128 5.54156Q51.3272 1.12568 51.3272-4.24675Q51.3272-9.61051 48.7128-14.0213Q46.0983-18.4321 41.6833-21.0509Q37.2682-23.6697 31.9044-23.6697Q26.5405-23.6697 22.1195-21.0509Q17.6985-18.4321 15.0797-14.0213Q12.4609-9.61051 12.4609-4.24675Q12.4609 1.12568 15.0797 5.54156Q17.6985 9.95744 22.1195 12.5762Q26.5405 15.195 31.9044 15.195ZM31.9044 7.74705Q28.5839 7.74705 25.8495 6.14909Q23.1151 4.55112 21.5128 1.81246Q19.9105-0.926208 19.9105-4.24675Q19.9105-7.55877 21.5128-10.2923Q23.1151-13.0258 25.8495-14.628Q28.5839-16.2303 31.9044-16.2303Q35.225-16.2303 37.9367-14.628Q40.6485-13.0258 42.2682-10.2923Q43.888-7.55877 43.888-4.24675Q43.888-0.892983 42.2682 1.82393Q40.6485 4.54084 37.9367 6.14395Q35.225 7.74705 31.9044 7.74705ZM31.9044 1.42682Q34.2377 1.42682 35.8862-0.238173Q37.5346-1.90316 37.5346-4.24675Q37.5346-6.58181 35.9131-8.22513Q34.2915-9.86844 31.9044-9.86844Q29.5259-9.86844 27.8992-8.25194Q26.2725-6.63545 26.2291-4.25703Q26.2188-1.91344 27.8507-0.243312Q29.4825 1.42682 31.9044 1.42682ZM122.412 15.195Q127.776 15.195 132.187 12.5762Q136.598 9.95744 139.216 5.54156Q141.835 1.12568 141.835-4.24675Q141.835-9.61051 139.216-14.0213Q136.598-18.4321 132.187-21.0509Q127.776-23.6697 122.412-23.6697Q117.048-23.6697 112.645-21.0509Q108.241-18.4321 105.605-14.0213Q102.969-9.61051 102.969-4.24675Q102.969 1.12568 105.605 5.54156Q108.241 9.95744 112.645 12.5762Q117.048 15.195 122.412 15.195ZM122.412 7.74705Q119.092 7.74705 116.375 6.14909Q113.658 4.55112 112.038 1.81246Q110.418-0.926208 110.418-4.24675Q110.418-7.55877 112.038-10.2923Q113.658-13.0258 116.375-14.628Q119.092-16.2303 122.412-16.2303Q125.776-16.2303 128.488-14.628Q131.2-13.0258 132.82-10.2923Q134.439-7.55877 134.439-4.24675Q134.439-0.936485 132.82 1.80218Q131.2 4.54084 128.488 6.14395Q125.776 7.74705 122.412 7.74705ZM122.412 1.4371Q124.737 1.4371 126.407-0.233034Q128.077-1.90316 128.077-4.24675Q128.077-6.58181 126.434-8.22513Q124.791-9.86844 122.412-9.86844Q120.069-9.86844 118.446-8.25194Q116.824-6.63545 116.78-4.24675Q116.727-1.90316 118.376-0.233034Q120.025 1.4371 122.412 1.4371ZM33.1203-0.0740962L84.8539-0.0740962Q86.8884-0.0740962 88.1026-0.655512Q89.3168-1.23693 90.7813-2.79683L115.781-29.7536L112.095-39.2824L85.03-9.02701Q84.6854-8.67198 84.4862-8.5457Q84.287-8.41941 83.8594-8.41941L33.1203-8.41941ZM82.166-81.4476Q82.166-79.6672 83.4056-78.4493Q84.6452-77.2314 86.382-77.2314L99.2774-77.2314Q99.9137-77.2314 100.057-76.7283L117.969-3.11934L125.988-5.20367L106.664-82.1379Q106.212-83.8641 104.793-84.7422Q103.374-85.6202 100.994-85.6202L86.382-85.6202Q84.6452-85.6202 83.4056-84.3981Q82.166-83.1759 82.166-81.4476Z"/>
  </g>
  <g id="Regular-M" transform="matrix(1 0 0 1 1374.82 1126)">
   <path d="M30.554 13.8219Q35.5469 13.8219 39.6627 11.3824Q43.7786 8.94297 46.2127 4.83242Q48.6469 0.721872 48.6469-4.28164Q48.6469-9.27451 46.2127-13.3851Q43.7786-17.4958 39.6627-19.9352Q35.5469-22.3747 30.554-22.3747Q25.5609-22.3747 21.4504-19.9352Q17.3398-17.4958 14.9004-13.3851Q12.4609-9.27451 12.4609-4.28164Q12.4609 0.721872 14.9004 4.83242Q17.3398 8.94297 21.4504 11.3824Q25.5609 13.8219 30.554 13.8219ZM30.554 7.19993Q27.3745 7.19993 24.7561 5.67248Q22.1378 4.14504 20.605 1.52145Q19.0722-1.10214 19.0722-4.28164Q19.0722-7.45068 20.605-10.0743Q22.1378-12.6979 24.7561-14.2305Q27.3745-15.7632 30.554-15.7632Q33.7335-15.7632 36.3311-14.2305Q38.9288-12.6979 40.4822-10.0743Q42.0355-7.45068 42.0355-4.28164Q42.0355-1.05029 40.4822 1.54737Q38.9288 4.14504 36.3311 5.67248Q33.7335 7.19993 30.554 7.19993ZM30.554 0.905667Q32.6808 0.905667 34.1852-0.624556Q35.6896-2.15478 35.6896-4.28164Q35.6896-6.39803 34.2112-7.90242Q32.7327-9.40681 30.554-9.40681Q28.3857-9.40681 26.9073-7.92826Q25.4288-6.4497 25.3771-4.28164Q25.3771-2.15478 26.8556-0.624556Q28.3341 0.905667 30.554 0.905667ZM119.492 13.8219Q124.485 13.8219 128.596 11.3824Q132.707 8.94297 135.146 4.83242Q137.585 0.721872 137.585-4.28164Q137.585-9.27451 135.146-13.3851Q132.707-17.4958 128.596-19.9352Q124.485-22.3747 119.492-22.3747Q114.499-22.3747 110.409-19.9352Q106.319-17.4958 103.859-13.3851Q101.399-9.27451 101.399-4.28164Q101.399 0.721872 103.859 4.83242Q106.319 8.94297 110.409 11.3824Q114.499 13.8219 119.492 13.8219ZM119.492 7.19993Q116.313 7.19993 113.715 5.67248Q111.117 4.14504 109.564 1.52145Q108.011-1.10214 108.011-4.28164Q108.011-7.45068 109.564-10.0743Q111.117-12.6979 113.715-14.2305Q116.313-15.7632 119.492-15.7632Q122.724-15.7632 125.321-14.2305Q127.919-12.6979 129.472-10.0743Q131.026-7.45068 131.026-4.28164Q131.026-1.10214 129.472 1.52145Q127.919 4.14504 125.321 5.67248Q122.724 7.19993 119.492 7.19993ZM119.492 0.905667Q121.609 0.905667 123.139-0.624556Q124.669-2.15478 124.669-4.28164Q124.669-6.39803 123.165-7.90242Q121.66-9.40681 119.492-9.40681Q117.366-9.40681 115.892-7.92826Q114.419-6.4497 114.367-4.28164Q114.316-2.15478 115.815-0.624556Q117.314 0.905667 119.492 0.905667ZM32.003-0.613683L83.2361-0.613683Q84.7705-0.613683 85.8948-1.14229Q87.019-1.6709 88.3868-3.15264L112.463-29.5883L110.11-38.6522L83.2898-8.54108Q82.9266-8.17771 82.719-8.06365Q82.5115-7.94959 82.0858-7.94959L32.003-7.94959ZM80.7449-80.4989Q80.7449-78.9137 81.838-77.8464Q82.9311-76.7791 84.4645-76.7791L97.0974-76.7791Q97.7003-76.7791 97.8355-76.3113L115.576-2.92549L122.632-4.73886L103.648-81.025Q103.244-82.5594 101.984-83.3631Q100.725-84.1669 98.4967-84.1669L84.4645-84.1669Q82.9311-84.1669 81.838-83.0944Q80.7449-82.0219 80.7449-80.4989Z"/>
  </g>
  <g id="Light-M" transform="matrix(1 0 0 1 1078.85 1126)">
   <path d="M29.8867 13.4967Q34.6913 13.4967 38.6617 11.1428Q42.6321 8.78888 44.9721 4.83242Q47.3121 0.875964 47.3121-3.95649Q47.3121-8.76106 44.9721-12.7178Q42.6321-16.6744 38.6617-19.0284Q34.6913-21.3823 29.8867-21.3823Q25.0817-21.3823 21.1252-19.0284Q17.1688-16.6744 14.8149-12.7178Q12.4609-8.76106 12.4609-3.95649Q12.4609 0.875964 14.8149 4.83242Q17.1688 8.78888 21.1252 11.1428Q25.0817 13.4967 29.8867 13.4967ZM29.8867 8.26075Q26.502 8.26075 23.7295 6.63067Q20.9571 5.00059 19.3131 2.21443Q17.669-0.571727 17.669-3.95649Q17.669-7.31384 19.3131-10.1Q20.9571-12.8862 23.7295-14.5299Q26.502-16.1737 29.8867-16.1737Q33.2715-16.1737 36.0402-14.5299Q38.8089-12.8862 40.4565-10.1Q42.104-7.31384 42.104-3.95649Q42.104-0.536843 40.4565 2.23187Q38.8089 5.00059 36.0402 6.63067Q33.2715 8.26075 29.8867 8.26075ZM29.8867 0.751575Q31.8253 0.751575 33.1928-0.633181Q34.5604-2.01794 34.5604-3.95649Q34.5604-5.86763 33.2103-7.23517Q31.8602-8.60272 29.8867-8.60272Q27.9407-8.60272 26.5906-7.25238Q25.2405-5.90204 25.2061-3.95649Q25.2061-2.01794 26.5562-0.633181Q27.9063 0.751575 29.8867 0.751575ZM118.671 13.4967Q123.476 13.4967 127.432 11.1428Q131.389 8.78888 133.743 4.83242Q136.097 0.875964 136.097-3.95649Q136.097-8.76106 133.743-12.7178Q131.389-16.6744 127.432-19.0284Q123.476-21.3823 118.671-21.3823Q113.866-21.3823 109.913-19.0284Q105.96-16.6744 103.603-12.7178Q101.245-8.76106 101.245-3.95649Q101.245 0.875964 103.603 4.83242Q105.96 8.78888 109.913 11.1428Q113.866 13.4967 118.671 13.4967ZM118.671 8.26075Q115.286 8.26075 112.517 6.63067Q109.748 5.00059 108.101 2.21443Q106.454-0.571727 106.454-3.95649Q106.454-7.31384 108.101-10.1Q109.748-12.8862 112.517-14.5299Q115.286-16.1737 118.671-16.1737Q122.091-16.1737 124.859-14.5299Q127.628-12.8862 129.276-10.1Q130.923-7.31384 130.923-3.95649Q130.923-0.571727 129.276 2.21443Q127.628 5.00059 124.859 6.63067Q122.091 8.26075 118.671 8.26075ZM118.671 0.751575Q120.582 0.751575 121.967-0.633181Q123.352-2.01794 123.352-3.95649Q123.352-5.86763 121.984-7.23517Q120.617-8.60272 118.671-8.60272Q116.732-8.60272 115.396-7.25238Q114.06-5.90204 114.025-3.95649Q113.99-2.01794 115.344-0.633181Q116.698 0.751575 118.671 0.751575ZM30.8565-1.10988L82.9282-1.10988Q84.2228-1.10988 85.099-1.53586Q85.9752-1.96184 87.035-3.11842L111.658-30.3924L109.733-37.1806L83.1699-7.34342Q82.8239-6.99701 82.6335-6.90006Q82.4431-6.8031 82.0344-6.8031L30.8565-6.8031ZM80.5396-81.0124Q80.5396-79.7865 81.3847-78.9587Q82.2297-78.1309 83.4207-78.1309L96.6354-78.1309Q97.3067-78.1309 97.4592-77.6116L115.679-3.02812L121.144-4.44793L101.989-81.1791Q101.635-82.4737 100.607-83.1663Q99.5786-83.859 97.778-83.859L83.4207-83.859Q82.2297-83.859 81.3847-83.0175Q80.5396-82.176 80.5396-81.0124Z"/>
  </g>
  <g id="Thin-M" transform="matrix(1 0 0 1 783.128 1126)">
   <path d="M29.0042 13.0667Q33.5598 13.0667 37.3378 10.8259Q41.1158 8.58508 43.3312 4.83242Q45.5467 1.07976 45.5467-3.52646Q45.5467-8.08199 43.3312-11.8351Q41.1158-15.5881 37.3378-17.829Q33.5598-20.0698 29.0042-20.0698Q24.4479-20.0698 20.6952-17.829Q16.9426-15.5881 14.7017-11.8351Q12.4609-8.08199 12.4609-3.52646Q12.4609 1.07976 14.7017 4.83242Q16.9426 8.58508 20.6952 10.8259Q24.4479 13.0667 29.0042 13.0667ZM29.0042 9.66376Q25.348 9.66376 22.3718 7.89795Q19.3955 6.13213 17.6043 3.13096Q15.8132 0.129781 15.8132-3.52646Q15.8132-7.13285 17.6043-10.134Q19.3955-13.1352 22.3718-14.9259Q25.348-16.7167 29.0042-16.7167Q32.6605-16.7167 35.6554-14.9259Q38.6504-13.1352 40.4224-10.134Q42.1945-7.13285 42.1945-3.52646Q42.1945 0.142233 40.4224 3.13718Q38.6504 6.13213 35.6554 7.89795Q32.6605 9.66376 29.0042 9.66376ZM29.0042 0.547776Q30.6938 0.547776 31.8803-0.644588Q33.0669-1.83695 33.0669-3.52646Q33.0669-5.16612 31.8865-6.35268Q30.7062-7.53924 29.0042-7.53924Q27.3521-7.53924 26.1718-6.35848Q24.9915-5.17772 24.9799-3.52646Q24.9799-1.83695 26.1602-0.644588Q27.3405 0.547776 29.0042 0.547776ZM117.585 13.0667Q122.14 13.0667 125.893 10.8259Q129.646 8.58508 131.887 4.83242Q134.128 1.07976 134.128-3.52646Q134.128-8.08199 131.887-11.8351Q129.646-15.5881 125.893-17.829Q122.14-20.0698 117.585-20.0698Q113.029-20.0698 109.257-17.829Q105.485-15.5881 103.263-11.8351Q101.041-8.08199 101.041-3.52646Q101.041 1.07976 103.263 4.83242Q105.485 8.58508 109.257 10.8259Q113.029 13.0667 117.585 13.0667ZM117.585 9.66376Q113.928 9.66376 110.933 7.89795Q107.938 6.13213 106.166 3.13096Q104.395 0.129781 104.395-3.52646Q104.395-7.13285 106.166-10.134Q107.938-13.1352 110.933-14.9259Q113.928-16.7167 117.585-16.7167Q121.253-16.7167 124.248-14.9259Q127.243-13.1352 129.015-10.134Q130.787-7.13285 130.787-3.52646Q130.787 0.129781 129.015 3.13096Q127.243 6.13213 124.248 7.89795Q121.253 9.66376 117.585 9.66376ZM117.585 0.547776Q119.224 0.547776 120.417-0.644588Q121.609-1.83695 121.609-3.52646Q121.609-5.16612 120.423-6.35268Q119.236-7.53924 117.585-7.53924Q115.895-7.53924 114.74-6.35848Q113.584-5.17772 113.573-3.52646Q113.56-1.83695 114.722-0.644588Q115.883 0.547776 117.585 0.547776ZM29.3402-1.76614L82.521-1.76614Q83.4985-1.76614 84.0466-2.05638Q84.5946-2.34662 85.2472-3.07318L110.595-31.4559L109.236-35.2342L83.0113-5.75942Q82.6882-5.43545 82.5204-5.36111Q82.3526-5.28678 81.9663-5.28678L29.3402-5.28678ZM80.2682-81.6915Q80.2682-80.9408 80.7851-80.4298Q81.3019-79.9187 82.0401-79.9187L96.0244-79.9187Q96.7862-79.9187 96.9615-79.3313L115.815-3.16386L119.175-4.06315L99.7938-81.3829Q99.5081-82.3604 98.7852-82.9061Q98.0623-83.4518 96.8274-83.4518L82.0401-83.4518Q81.3019-83.4518 80.7851-82.9158Q80.2682-82.3798 80.2682-81.6915Z"/>
  </g>
  <g id="Ultralight-M" transform="matrix(1 0 0 1 486.921 1126)">
   <path d="M28.5522 12.8464Q32.9802 12.8464 36.6597 10.6636Q40.3391 8.4807 42.4908 4.83242Q44.6425 1.18415 44.6425-3.3062Q44.6425-7.73417 42.4908-11.383Q40.3391-15.0318 36.6597-17.2146Q32.9802-19.3975 28.5522-19.3975Q24.1232-19.3975 20.475-17.2146Q16.8267-15.0318 14.6438-11.383Q12.4609-7.73417 12.4609-3.3062Q12.4609 1.18415 14.6438 4.83242Q16.8267 8.4807 20.475 10.6636Q24.1232 12.8464 28.5522 12.8464ZM28.5522 10.3824Q24.7569 10.3824 21.6763 8.54704Q18.5957 6.7117 16.7291 3.60039Q14.8626 0.489091 14.8626-3.3062Q14.8626-7.04015 16.7291-10.1515Q18.5957-13.2628 21.6763-15.1288Q24.7569-16.9948 28.5522-16.9948Q32.3475-16.9948 35.4583-15.1288Q38.5692-13.2628 40.405-10.1515Q42.2408-7.04015 42.2408-3.3062Q42.2408 0.490052 40.405 3.60087Q38.5692 6.7117 35.4583 8.54704Q32.3475 10.3824 28.5522 10.3824ZM28.5522 0.443392Q30.1142 0.443392 31.208-0.65043Q32.3019-1.74425 32.3019-3.3062Q32.3019-4.80681 31.2085-5.90067Q30.1151-6.99453 28.5522-6.99453Q27.0507-6.99453 25.9573-5.90063Q24.8639-4.80673 24.864-3.3062Q24.864-1.74425 25.9574-0.65043Q27.0507 0.443392 28.5522 0.443392ZM117.028 12.8464Q121.456 12.8464 125.105 10.6636Q128.754 8.4807 130.937 4.83242Q133.12 1.18415 133.12-3.3062Q133.12-7.73417 130.937-11.383Q128.754-15.0318 125.105-17.2146Q121.456-19.3975 117.028-19.3975Q112.6-19.3975 108.921-17.2146Q105.241-15.0318 103.089-11.383Q100.937-7.73417 100.937-3.3062Q100.937 1.18415 103.089 4.83242Q105.241 8.4807 108.921 10.6636Q112.6 12.8464 117.028 12.8464ZM117.028 10.3824Q113.233 10.3824 110.122 8.54704Q107.01 6.7117 105.175 3.60039Q103.34 0.489091 103.34-3.3062Q103.34-7.04015 105.175-10.1515Q107.01-13.2628 110.122-15.1288Q113.233-16.9948 117.028-16.9948Q120.825-16.9948 123.935-15.1288Q127.046-13.2628 128.882-10.1515Q130.718-7.04015 130.718-3.3062Q130.718 0.489091 128.882 3.60039Q127.046 6.7117 123.935 8.54704Q120.825 10.3824 117.028 10.3824ZM117.028 0.443392Q118.529 0.443392 119.623-0.65043Q120.717-1.74425 120.717-3.3062Q120.717-4.80681 119.623-5.90067Q118.529-6.99453 117.028-6.99453Q115.466-6.99453 114.404-5.90063Q113.341-4.80673 113.341-3.3062Q113.34-1.74425 114.403-0.65043Q115.465 0.443392 117.028 0.443392ZM28.5635-2.10228L82.3124-2.10228Q83.1275-2.10228 83.5075-2.32299Q83.8875-2.5437 84.3315-3.05L110.05-32.0006L108.981-34.2373L82.9301-4.9481Q82.6187-4.63562 82.4625-4.57287Q82.3063-4.51013 81.9315-4.51013L28.5635-4.51013ZM80.1291-82.0393Q80.1291-81.5321 80.4779-81.1832Q80.8267-80.8344 81.333-80.8344L95.7114-80.8344Q96.5196-80.8344 96.7066-80.2121L115.884-3.23339L118.167-3.86606L98.6696-81.4873Q98.4185-82.3024 97.8521-82.7728Q97.2856-83.2432 96.3405-83.2432L81.333-83.2432Q80.8267-83.2432 80.4779-82.8637Q80.1291-82.4841 80.1291-82.0393Z"/>
  </g>
  <g id="Black-S" transform="matrix(1 0 0 1 2864.55 696)">
   <path d="M30.3223 9.7168Q35.9863 9.7168 40.625 6.95801Q45.2637 4.19922 48.0225-0.463867Q50.7812-5.12695 50.7812-10.791Q50.7812-16.4551 48.0225-21.0938Q45.2637-25.7324 40.625-28.4912Q35.9863-31.25 30.3223-31.25Q24.6582-31.25 19.9707-28.4912Q15.2832-25.7324 12.5244-21.0938Q9.76562-16.4551 9.76562-10.791Q9.76562-5.12695 12.5244-0.463867Q15.2832 4.19922 19.9707 6.95801Q24.6582 9.7168 30.3223 9.7168ZM30.3223 0.683594Q27.1484 0.683594 24.5361-0.854492Q21.9238-2.39258 20.3857-5.00488Q18.8477-7.61719 18.8477-10.791Q18.8477-13.9648 20.3857-16.5527Q21.9238-19.1406 24.5361-20.6787Q27.1484-22.2168 30.3223-22.2168Q33.4961-22.2168 36.084-20.6787Q38.6719-19.1406 40.21-16.5527Q41.748-13.9648 41.748-10.791Q41.748-7.66602 40.21-5.05371Q38.6719-2.44141 36.084-0.878906Q33.4961 0.683594 30.3223 0.683594ZM30.3223-4.44336Q32.959-4.44336 34.8145-6.27441Q36.6699-8.10547 36.6699-10.791Q36.6699-13.4766 34.8389-15.3076Q33.0078-17.1387 30.3223-17.1387Q27.6367-17.1387 25.7812-15.332Q23.9258-13.5254 23.9258-10.8398Q23.877-8.1543 25.7568-6.29883Q27.6367-4.44336 30.3223-4.44336ZM107.471 9.7168Q113.135 9.7168 117.773 6.95801Q122.412 4.19922 125.171-0.463867Q127.93-5.12695 127.93-10.791Q127.93-16.4551 125.171-21.0938Q122.412-25.7324 117.773-28.4912Q113.135-31.25 107.471-31.25Q101.807-31.25 97.1191-28.4912Q92.4316-25.7324 89.6729-21.0938Q86.9141-16.4551 86.9141-10.791Q86.9141-5.12695 89.6729-0.463867Q92.4316 4.19922 97.1191 6.95801Q101.807 9.7168 107.471 9.7168ZM107.471 0.683594Q104.297 0.683594 101.685-0.854492Q99.0723-2.39258 97.5342-5.00488Q95.9961-7.61719 95.9961-10.791Q95.9961-13.9648 97.5342-16.5527Q99.0723-19.1406 101.685-20.6787Q104.297-22.2168 107.471-22.2168Q110.645-22.2168 113.232-20.6787Q115.82-19.1406 117.358-16.5527Q118.896-13.9648 118.896-10.791Q118.896-7.66602 117.358-5.05371Q115.82-2.44141 113.232-0.878906Q110.645 0.683594 107.471 0.683594ZM107.471-4.39453Q110.107-4.39453 111.963-6.25Q113.818-8.10547 113.818-10.791Q113.818-13.4766 111.987-15.3076Q110.156-17.1387 107.471-17.1387Q104.785-17.1387 102.93-15.332Q101.074-13.5254 101.074-10.791Q101.025-8.10547 102.905-6.25Q104.785-4.39453 107.471-4.39453ZM30.3223-5.56641L72.9004-5.56641Q76.4648-5.56641 77.7588-6.22559Q79.0527-6.88477 80.5664-8.39844L103.857-31.6406L95.7031-40.8203L73.5352-16.5527Q73.3398-16.3086 73.2178-16.1621Q73.0957-16.0156 72.7539-16.0156L30.3223-16.0156ZM70.0195-75.2441Q70.0195-73.0957 71.5576-71.5576Q73.0957-70.0195 75.2441-70.0195L86.4258-70.0195Q87.0605-70.0195 87.207-69.4824L101.953-10.8398L111.963-13.5254L95.459-76.416Q94.9219-78.5156 93.1885-79.4922Q91.4551-80.4688 89.0137-80.4688L75.2441-80.4688Q73.0957-80.4688 71.5576-78.9307Q70.0195-77.3926 70.0195-75.2441Z"/>
  </g>
  <g id="Heavy-S" transform="matrix(1 0 0 1 2570.13 696)">
   <path d="M28.8932 8.21862Q34.1655 8.21862 38.4872 5.64998Q42.809 3.08135 45.3776-1.25906Q47.9462-5.59946 47.9462-10.8717Q47.9462-16.1439 45.3776-20.4657Q42.809-24.7874 38.4872-27.3561Q34.1655-29.9247 28.8932-29.9247Q23.621-29.9247 19.2619-27.3561Q14.9029-24.7874 12.3343-20.4657Q9.76562-16.1439 9.76562-10.8717Q9.76562-5.59946 12.3343-1.25906Q14.9029 3.08135 19.2619 5.64998Q23.621 8.21862 28.8932 8.21862ZM28.8932-0.0654965Q25.9038-0.0654965 23.4413-1.51139Q20.9788-2.95728 19.5329-5.41976Q18.087-7.88225 18.087-10.8717Q18.087-13.8611 19.5329-16.305Q20.9788-18.7488 23.4413-20.1947Q25.9038-21.6406 28.8932-21.6406Q31.8827-21.6406 34.3207-20.1947Q36.7588-18.7488 38.2105-16.305Q39.6621-13.8611 39.6621-10.8717Q39.6621-7.90803 38.2105-5.4513Q36.7588-2.99458 34.3207-1.53004Q31.8827-0.0654965 28.8932-0.0654965ZM28.8932-5.00806Q31.3225-5.00806 33.0339-6.70658Q34.7453-8.4051 34.7453-10.8717Q34.7453-13.3383 33.0583-15.031Q31.3713-16.7238 28.8932-16.7238Q26.4151-16.7238 24.7095-15.0554Q23.0038-13.3871 22.9923-10.909Q22.955-8.44241 24.6793-6.72523Q26.4036-5.00806 28.8932-5.00806ZM104.301 8.21862Q109.574 8.21862 113.895 5.64998Q118.217 3.08135 120.786-1.25906Q123.354-5.59946 123.354-10.8717Q123.354-16.1439 120.786-20.4657Q118.217-24.7874 113.895-27.3561Q109.574-29.9247 104.301-29.9247Q99.0292-29.9247 94.676-27.3561Q90.3227-24.7874 87.7483-20.4657Q85.1739-16.1439 85.1739-10.8717Q85.1739-5.59946 87.7483-1.25906Q90.3227 3.08135 94.676 5.64998Q99.0292 8.21862 104.301 8.21862ZM104.301-0.0654965Q101.312-0.0654965 98.8553-1.51139Q96.3986-2.95728 94.9469-5.41976Q93.4953-7.88225 93.4953-10.8717Q93.4953-13.8611 94.9469-16.305Q96.3986-18.7488 98.8553-20.1947Q101.312-21.6406 104.301-21.6406Q107.302-21.6406 109.741-20.1947Q112.179-18.7488 113.63-16.305Q115.082-13.8611 115.082-10.8717Q115.082-7.91955 113.63-5.45707Q112.179-2.99458 109.741-1.53004Q107.302-0.0654965 104.301-0.0654965ZM104.301-4.97075Q106.731-4.97075 108.448-6.68793Q110.165-8.4051 110.165-10.8717Q110.165-13.3383 108.472-15.031Q106.78-16.7238 104.301-16.7238Q101.835-16.7238 100.129-15.0554Q98.4236-13.3871 98.4121-10.8717Q98.3632-8.4051 100.093-6.68793Q101.823-4.97075 104.301-4.97075ZM29.2159-6.10806L71.1256-6.10806Q74.16-6.10806 75.3847-6.72114Q76.6095-7.33422 78.0541-8.80179L100.239-31.3525L93.525-40.3017L71.599-16.1609Q71.3807-15.9052 71.2471-15.7703Q71.1135-15.6353 70.7717-15.6353L29.2159-15.6353ZM68.4522-74.1147Q68.4522-72.1392 69.8578-70.7394Q71.2633-69.3396 73.2274-69.3396L84.0402-69.3396Q84.6289-69.3396 84.7638-68.8486L99.2564-10.6094L108.39-13.0414L92.2898-75.1483Q91.7987-77.0635 90.2152-77.971Q88.6316-78.8784 86.3054-78.8784L73.2274-78.8784Q71.2633-78.8784 69.8578-77.4786Q68.4522-76.0788 68.4522-74.1147Z"/>
  </g>
  <g id="Bold-S" transform="matrix(1 0 0 1 2275.98 696)">
   <path d="M27.2949 6.54297Q32.1289 6.54297 36.0962 4.18701Q40.0635 1.83105 42.4194-2.14844Q44.7754-6.12793 44.7754-10.9619Q44.7754-15.7959 42.4194-19.7632Q40.0635-23.7305 36.0962-26.0864Q32.1289-28.4424 27.2949-28.4424Q22.4609-28.4424 18.4692-26.0864Q14.4775-23.7305 12.1216-19.7632Q9.76562-15.7959 9.76562-10.9619Q9.76562-6.12793 12.1216-2.14844Q14.4775 1.83105 18.4692 4.18701Q22.4609 6.54297 27.2949 6.54297ZM27.2949-0.90332Q24.5117-0.90332 22.2168-2.24609Q19.9219-3.58887 18.5791-5.88379Q17.2363-8.17871 17.2363-10.9619Q17.2363-13.7451 18.5791-16.0278Q19.9219-18.3105 22.2168-19.6533Q24.5117-20.9961 27.2949-20.9961Q30.0781-20.9961 32.3486-19.6533Q34.6191-18.3105 35.9741-16.0278Q37.3291-13.7451 37.3291-10.9619Q37.3291-8.17871 35.9741-5.896Q34.6191-3.61328 32.3486-2.2583Q30.0781-0.90332 27.2949-0.90332ZM27.2949-5.63965Q29.4922-5.63965 31.0425-7.18994Q32.5928-8.74023 32.5928-10.9619Q32.5928-13.1836 31.0669-14.7217Q29.541-16.2598 27.2949-16.2598Q25.0488-16.2598 23.5107-14.7461Q21.9727-13.2324 21.9482-10.9863Q21.9238-8.76465 23.4741-7.20215Q25.0244-5.63965 27.2949-5.63965ZM100.757 6.54297Q105.591 6.54297 109.558 4.18701Q113.525 1.83105 115.881-2.14844Q118.237-6.12793 118.237-10.9619Q118.237-15.7959 115.881-19.7632Q113.525-23.7305 109.558-26.0864Q105.591-28.4424 100.757-28.4424Q95.9229-28.4424 91.9434-26.0864Q87.9639-23.7305 85.5957-19.7632Q83.2275-15.7959 83.2275-10.9619Q83.2275-6.12793 85.5957-2.14844Q87.9639 1.83105 91.9434 4.18701Q95.9229 6.54297 100.757 6.54297ZM100.757-0.90332Q97.9736-0.90332 95.6909-2.24609Q93.4082-3.58887 92.0532-5.88379Q90.6982-8.17871 90.6982-10.9619Q90.6982-13.7451 92.0532-16.0278Q93.4082-18.3105 95.6909-19.6533Q97.9736-20.9961 100.757-20.9961Q103.564-20.9961 105.835-19.6533Q108.105-18.3105 109.46-16.0278Q110.815-13.7451 110.815-10.9619Q110.815-8.20312 109.46-5.9082Q108.105-3.61328 105.835-2.2583Q103.564-0.90332 100.757-0.90332ZM100.757-5.61523Q102.954-5.61523 104.517-7.17773Q106.079-8.74023 106.079-10.9619Q106.079-13.1836 104.541-14.7217Q103.003-16.2598 100.757-16.2598Q98.5352-16.2598 96.9971-14.7461Q95.459-13.2324 95.4346-10.9619Q95.3857-8.74023 96.9482-7.17773Q98.5107-5.61523 100.757-5.61523ZM27.9785-6.71387L69.1406-6.71387Q71.582-6.71387 72.7295-7.27539Q73.877-7.83691 75.2441-9.25293L96.1914-31.0303L91.0889-39.7217L69.4336-15.7227Q69.1895-15.4541 69.043-15.332Q68.8965-15.21 68.5547-15.21L27.9785-15.21ZM66.6992-72.8516Q66.6992-71.0693 67.9565-69.8242Q69.2139-68.5791 70.9717-68.5791L81.3721-68.5791Q81.9092-68.5791 82.0312-68.1396L96.2402-10.3516L104.395-12.5L88.7451-73.7305Q88.3057-75.4395 86.8896-76.2695Q85.4736-77.0996 83.2764-77.0996L70.9717-77.0996Q69.2139-77.0996 67.9565-75.8545Q66.6992-74.6094 66.6992-72.8516Z"/>
  </g>
  <g id="Semibold-S" transform="matrix(1 0 0 1 1981.03 696)">
   <path d="M26.193 5.3877Q30.7248 5.3877 34.4477 3.17837Q38.1706 0.969043 40.3799-2.76162Q42.5893-6.49229 42.5893-11.0241Q42.5893-15.556 40.3799-19.2789Q38.1706-23.0018 34.4477-25.2111Q30.7248-27.4204 26.193-27.4204Q21.6611-27.4204 17.9227-25.2111Q14.1843-23.0018 11.975-19.2789Q9.76562-15.556 9.76562-11.0241Q9.76562-6.49229 11.975-2.76162Q14.1843 0.969043 17.9227 3.17837Q21.6611 5.3877 26.193 5.3877ZM26.193-1.48096Q23.552-1.48096 21.3726-2.75264Q19.1932-4.02432 17.9215-6.20371Q16.6498-8.38311 16.6498-11.0241Q16.6498-13.6651 17.9215-15.8368Q19.1932-18.0084 21.3726-19.2801Q23.552-20.5518 26.193-20.5518Q28.834-20.5518 30.989-19.2801Q33.1439-18.0084 34.4323-15.8368Q35.7206-13.6651 35.7206-11.0241Q35.7206-8.36533 34.4323-6.20259Q33.1439-4.03984 30.989-2.7604Q28.834-1.48096 26.193-1.48096ZM26.193-6.0751Q28.2303-6.0751 29.6695-7.52319Q31.1087-8.97129 31.1087-11.0241Q31.1087-13.077 29.6939-14.5084Q28.2791-15.9398 26.193-15.9398Q24.1068-15.9398 22.6843-14.5328Q21.2617-13.1258 21.2284-11.0396Q21.2129-8.98682 22.6432-7.53096Q24.0735-6.0751 26.193-6.0751ZM98.313 5.3877Q102.845 5.3877 106.568 3.17837Q110.291 0.969043 112.5-2.76162Q114.709-6.49229 114.709-11.0241Q114.709-15.556 112.5-19.2789Q110.291-23.0018 106.568-25.2111Q102.845-27.4204 98.313-27.4204Q93.7812-27.4204 90.0594-25.2111Q86.3376-23.0018 84.1116-19.2789Q81.8856-15.556 81.8856-11.0241Q81.8856-6.49229 84.1116-2.76162Q86.3376 0.969043 90.0594 3.17837Q93.7812 5.3877 98.313 5.3877ZM98.313-1.48096Q95.672-1.48096 93.5092-2.75264Q91.3465-4.02432 90.0582-6.20371Q88.7698-8.38311 88.7698-11.0241Q88.7698-13.6651 90.0582-15.8368Q91.3465-18.0084 93.5092-19.2801Q95.672-20.5518 98.313-20.5518Q100.987-20.5518 103.142-19.2801Q105.297-18.0084 106.586-15.8368Q107.874-13.6651 107.874-11.0241Q107.874-8.39863 106.586-6.21924Q105.297-4.03984 103.142-2.7604Q100.987-1.48096 98.313-1.48096ZM98.313-6.05957Q100.35-6.05957 101.806-7.51543Q103.262-8.97129 103.262-11.0241Q103.262-13.077 101.831-14.5084Q100.399-15.9398 98.313-15.9398Q96.2602-15.9398 94.8376-14.5328Q93.415-13.1258 93.3817-11.0241Q93.3329-8.97129 94.7799-7.51543Q96.2269-6.05957 98.313-6.05957ZM27.1254-7.13154L67.7721-7.13154Q69.8047-7.13154 70.8988-7.65752Q71.993-8.1835 73.3068-9.56396L93.401-30.8081L89.4093-39.3218L67.9406-15.4205Q67.6787-15.1431 67.5233-15.0299Q67.368-14.9167 67.0262-14.9167L27.1254-14.9167ZM65.4906-71.9807Q65.4906-70.3317 66.6458-69.1933Q67.8009-68.0548 69.4165-68.0548L79.5325-68.0548Q80.0341-68.0548 80.1473-67.6509L94.1607-10.1738L101.64-12.1268L86.3013-72.7529Q85.8974-74.3197 84.5969-75.0965Q83.2964-75.8732 81.188-75.8732L69.4165-75.8732Q67.8009-75.8732 66.6458-74.7348Q65.4906-73.5963 65.4906-71.9807Z"/>
  </g>
  <g id="Medium-S" transform="matrix(1 0 0 1 1685.66 696)">
   <path d="M25.3574 4.51172Q29.6602 4.51172 33.1978 2.41357Q36.7354 0.31543 38.8335-3.22656Q40.9316-6.76855 40.9316-11.0713Q40.9316-15.374 38.8335-18.9116Q36.7354-22.4492 33.1978-24.5474Q29.6602-26.6455 25.3574-26.6455Q21.0547-26.6455 17.5083-24.5474Q13.9619-22.4492 11.8638-18.9116Q9.76562-15.374 9.76562-11.0713Q9.76562-6.76855 11.8638-3.22656Q13.9619 0.31543 17.5083 2.41357Q21.0547 4.51172 25.3574 4.51172ZM25.3574-1.91895Q22.8242-1.91895 20.7324-3.13672Q18.6406-4.35449 17.4229-6.44629Q16.2051-8.53809 16.2051-11.0713Q16.2051-13.6045 17.4229-15.6919Q18.6406-17.7793 20.7324-18.9971Q22.8242-20.2148 25.3574-20.2148Q27.8906-20.2148 29.958-18.9971Q32.0254-17.7793 33.2632-15.6919Q34.501-13.6045 34.501-11.0713Q34.501-8.50684 33.2632-6.43506Q32.0254-4.36328 29.958-3.14111Q27.8906-1.91895 25.3574-1.91895ZM25.3574-6.40527Q27.2734-6.40527 28.6284-7.77588Q29.9834-9.14648 29.9834-11.0713Q29.9834-12.9961 28.6528-14.3467Q27.3223-15.6973 25.3574-15.6973Q23.3926-15.6973 22.0576-14.3711Q20.7227-13.0449 20.6826-11.0801Q20.6738-9.15527 22.0132-7.78027Q23.3525-6.40527 25.3574-6.40527ZM96.46 4.51172Q100.763 4.51172 104.3 2.41357Q107.838 0.31543 109.936-3.22656Q112.034-6.76855 112.034-11.0713Q112.034-15.374 109.936-18.9116Q107.838-22.4492 104.3-24.5474Q100.763-26.6455 96.46-26.6455Q92.1572-26.6455 88.6309-24.5474Q85.1045-22.4492 82.9863-18.9116Q80.8682-15.374 80.8682-11.0713Q80.8682-6.76855 82.9863-3.22656Q85.1045 0.31543 88.6309 2.41357Q92.1572 4.51172 96.46 4.51172ZM96.46-1.91895Q93.9268-1.91895 91.855-3.13672Q89.7832-4.35449 88.5454-6.44629Q87.3076-8.53809 87.3076-11.0713Q87.3076-13.6045 88.5454-15.6919Q89.7832-17.7793 91.855-18.9971Q93.9268-20.2148 96.46-20.2148Q99.0332-20.2148 101.101-18.9971Q103.168-17.7793 104.406-15.6919Q105.644-13.6045 105.644-11.0713Q105.644-8.54688 104.406-6.45508Q103.168-4.36328 101.101-3.14111Q99.0332-1.91895 96.46-1.91895ZM96.46-6.39648Q98.376-6.39648 99.751-7.77148Q101.126-9.14648 101.126-11.0713Q101.126-12.9961 99.7754-14.3467Q98.4248-15.6973 96.46-15.6973Q94.5352-15.6973 93.2002-14.3711Q91.8652-13.0449 91.8252-11.0713Q91.7764-9.14648 93.1357-7.77148Q94.4951-6.39648 96.46-6.39648ZM26.4785-7.44824L66.7344-7.44824Q68.457-7.44824 69.5107-7.94727Q70.5645-8.44629 71.8379-9.7998L91.2852-30.6396L88.1357-39.0186L66.8086-15.1914Q66.5332-14.9072 66.3711-14.8008Q66.209-14.6943 65.8672-14.6943L26.4785-14.6943ZM64.5742-71.3203Q64.5742-69.7725 65.6519-68.7148Q66.7295-67.6572 68.2373-67.6572L78.1377-67.6572Q78.6123-67.6572 78.7188-67.2803L92.584-10.0391L99.5508-11.8438L84.4482-72.0117Q84.0713-73.4707 82.8584-74.207Q81.6455-74.9434 79.6045-74.9434L68.2373-74.9434Q66.7295-74.9434 65.6519-73.8857Q64.5742-72.8281 64.5742-71.3203Z"/>
  </g>
  <g id="Regular-S" transform="matrix(1 0 0 1 1390.69 696)">
   <path d="M24.2676 3.36914Q28.2715 3.36914 31.5674 1.41602Q34.8633-0.537109 36.8164-3.83301Q38.7695-7.12891 38.7695-11.1328Q38.7695-15.1367 36.8164-18.4326Q34.8633-21.7285 31.5674-23.6816Q28.2715-25.6348 24.2676-25.6348Q20.2637-25.6348 16.9678-23.6816Q13.6719-21.7285 11.7188-18.4326Q9.76562-15.1367 9.76562-11.1328Q9.76562-7.12891 11.7188-3.83301Q13.6719-0.537109 16.9678 1.41602Q20.2637 3.36914 24.2676 3.36914ZM24.2676-2.49023Q21.875-2.49023 19.8975-3.6377Q17.9199-4.78516 16.7725-6.7627Q15.625-8.74023 15.625-11.1328Q15.625-13.5254 16.7725-15.5029Q17.9199-17.4805 19.8975-18.6279Q21.875-19.7754 24.2676-19.7754Q26.6602-19.7754 28.6133-18.6279Q30.5664-17.4805 31.7383-15.5029Q32.9102-13.5254 32.9102-11.1328Q32.9102-8.69141 31.7383-6.73828Q30.5664-4.78516 28.6133-3.6377Q26.6602-2.49023 24.2676-2.49023ZM24.2676-6.83594Q26.0254-6.83594 27.2705-8.10547Q28.5156-9.375 28.5156-11.1328Q28.5156-12.8906 27.2949-14.1357Q26.0742-15.3809 24.2676-15.3809Q22.4609-15.3809 21.2402-14.1602Q20.0195-12.9395 19.9707-11.1328Q19.9707-9.375 21.1914-8.10547Q22.4121-6.83594 24.2676-6.83594ZM94.043 3.36914Q98.0469 3.36914 101.343 1.41602Q104.639-0.537109 106.592-3.83301Q108.545-7.12891 108.545-11.1328Q108.545-15.1367 106.592-18.4326Q104.639-21.7285 101.343-23.6816Q98.0469-25.6348 94.043-25.6348Q90.0391-25.6348 86.7676-23.6816Q83.4961-21.7285 81.5186-18.4326Q79.541-15.1367 79.541-11.1328Q79.541-7.12891 81.5186-3.83301Q83.4961-0.537109 86.7676 1.41602Q90.0391 3.36914 94.043 3.36914ZM94.043-2.49023Q91.6504-2.49023 89.6973-3.6377Q87.7441-4.78516 86.5723-6.7627Q85.4004-8.74023 85.4004-11.1328Q85.4004-13.5254 86.5723-15.5029Q87.7441-17.4805 89.6973-18.6279Q91.6504-19.7754 94.043-19.7754Q96.4844-19.7754 98.4375-18.6279Q100.391-17.4805 101.562-15.5029Q102.734-13.5254 102.734-11.1328Q102.734-8.74023 101.562-6.7627Q100.391-4.78516 98.4375-3.6377Q96.4844-2.49023 94.043-2.49023ZM94.043-6.83594Q95.8008-6.83594 97.0703-8.10547Q98.3398-9.375 98.3398-11.1328Q98.3398-12.8906 97.0947-14.1357Q95.8496-15.3809 94.043-15.3809Q92.2852-15.3809 91.0645-14.1602Q89.8438-12.9395 89.7949-11.1328Q89.7461-9.375 90.9912-8.10547Q92.2363-6.83594 94.043-6.83594ZM25.6348-7.86133L65.3809-7.86133Q66.6992-7.86133 67.7002-8.3252Q68.7012-8.78906 69.9219-10.1074L88.5254-30.4199L86.4746-38.623L65.332-14.8926Q65.0391-14.5996 64.8682-14.502Q64.6973-14.4043 64.3555-14.4043L25.6348-14.4043ZM63.3789-70.459Q63.3789-69.043 64.3555-68.0908Q65.332-67.1387 66.6992-67.1387L76.3184-67.1387Q76.7578-67.1387 76.8555-66.7969L90.5273-9.86328L96.8262-11.4746L82.0312-71.0449Q81.6895-72.3633 80.5908-73.0469Q79.4922-73.7305 77.5391-73.7305L66.6992-73.7305Q65.332-73.7305 64.3555-72.7783Q63.3789-71.8262 63.3789-70.459Z"/>
  </g>
  <g id="Light-S" transform="matrix(1 0 0 1 1094.64 696)">
   <path d="M23.6773 3.08151Q27.5146 3.08151 30.6819 1.20405Q33.8491-0.673421 35.7189-3.83301Q37.5888-6.99259 37.5888-10.8452Q37.5888-14.6825 35.7189-17.8422Q33.8491-21.0019 30.6819-22.8794Q27.5146-24.7569 23.6773-24.7569Q19.8397-24.7569 16.6801-22.8794Q13.5206-21.0019 11.6431-17.8422Q9.76562-14.6825 9.76562-10.8452Q9.76562-6.99259 11.6431-3.83301Q13.5206-0.673421 16.6801 1.20405Q19.8397 3.08151 23.6773 3.08151ZM23.6773-1.55182Q21.1032-1.55182 18.9893-2.79007Q16.8755-4.02832 15.6296-6.14967Q14.3837-8.27103 14.3837-10.8452Q14.3837-13.4043 15.6296-15.5257Q16.8755-17.647 18.9893-18.8928Q21.1032-20.1385 23.6773-20.1385Q26.2515-20.1385 28.3559-18.8928Q30.4604-17.647 31.7155-15.5257Q32.9707-13.4043 32.9707-10.8452Q32.9707-8.2372 31.7155-6.13276Q30.4604-4.02832 28.3559-2.79007Q26.2515-1.55182 23.6773-1.55182ZM23.6773-6.97225Q25.2686-6.97225 26.3926-8.1131Q27.5167-9.25395 27.5167-10.8452Q27.5167-12.4214 26.4095-13.5455Q25.3024-14.6695 23.6773-14.6695Q22.0673-14.6695 20.9601-13.5623Q19.853-12.455 19.8194-10.8452Q19.8194-9.25395 20.9265-8.1131Q22.0337-6.97225 23.6773-6.97225ZM93.3164 3.08151Q97.1537 3.08151 100.313 1.20405Q103.473-0.673421 105.351-3.83301Q107.228-6.99259 107.228-10.8452Q107.228-14.6825 105.351-17.8422Q103.473-21.0019 100.313-22.8794Q97.1537-24.7569 93.3164-24.7569Q89.4791-24.7569 86.3286-22.8794Q83.1782-21.0019 81.2915-17.8422Q79.4047-14.6825 79.4047-10.8452Q79.4047-6.99259 81.2915-3.83301Q83.1782-0.673421 86.3286 1.20405Q89.4791 3.08151 93.3164 3.08151ZM93.3164-1.55182Q90.7422-1.55182 88.6377-2.79007Q86.5331-4.02832 85.2781-6.14967Q84.023-8.27103 84.023-10.8452Q84.023-13.4043 85.2781-15.5257Q86.5331-17.647 88.6377-18.8928Q90.7422-20.1385 93.3164-20.1385Q95.9244-20.1385 98.0288-18.8928Q100.133-17.647 101.388-15.5257Q102.644-13.4043 102.644-10.8452Q102.644-8.27103 101.388-6.14967Q100.133-4.02832 98.0288-2.79007Q95.9244-1.55182 93.3164-1.55182ZM93.3164-6.97225Q94.8926-6.97225 96.0335-8.1131Q97.1743-9.25395 97.1743-10.8452Q97.1743-12.4214 96.0503-13.5455Q94.9262-14.6695 93.3164-14.6695Q91.7252-14.6695 90.6255-13.5623Q89.5259-12.455 89.4923-10.8452Q89.4585-9.25395 90.5749-8.1131Q91.6913-6.97225 93.3164-6.97225ZM24.6206-8.30027L65.1085-8.30027Q66.2148-8.30027 66.9963-8.67335Q67.7778-9.04643 68.7261-10.0772L87.8141-31.1312L86.1417-37.3212L65.226-13.8331Q64.9483-13.5551 64.7925-13.4726Q64.6367-13.3901 64.3099-13.3901L24.6206-13.3901ZM63.1973-70.9132Q63.1973-69.8151 63.9544-69.0748Q64.7115-68.3345 65.7758-68.3345L75.9097-68.3345Q76.4097-68.3345 76.5226-67.9471L90.6181-9.95407L95.5093-11.2172L80.5631-71.1812Q80.2666-72.2875 79.3723-72.8728Q78.478-73.4581 76.9033-73.4581L65.7758-73.4581Q64.7115-73.4581 63.9544-72.7103Q63.1973-71.9625 63.1973-70.9132Z"/>
  </g>
  <g id="Thin-S" transform="matrix(1 0 0 1 798.796 696)">
   <path d="M22.8966 2.7011Q26.5137 2.7011 29.5107 0.923698Q32.5077-0.853705 34.2674-3.83301Q36.0271-6.81231 36.0271-10.4648Q36.0271-14.0818 34.2674-17.0614Q32.5077-20.041 29.5107-21.8184Q26.5137-23.5958 22.8966-23.5958Q19.279-23.5958 16.2997-21.8184Q13.3204-20.041 11.543-17.0614Q9.76562-14.0818 9.76562-10.4648Q9.76562-6.81231 11.543-3.83301Q13.3204-0.853705 16.2997 0.923698Q19.279 2.7011 22.8966 2.7011ZM22.8966-0.310689Q20.0823-0.310689 17.7882-1.66902Q15.4941-3.02734 14.118-5.3389Q12.742-7.65046 12.742-10.4648Q12.742-13.2442 14.118-15.5558Q15.4941-17.8674 17.7882-19.2431Q20.0823-20.6189 22.8966-20.6189Q25.711-20.6189 28.0155-19.2431Q30.3201-17.8674 31.6854-15.5558Q33.0507-13.2442 33.0507-10.4648Q33.0507-7.63648 31.6854-5.33191Q30.3201-3.02734 28.0155-1.66902Q25.711-0.310689 22.8966-0.310689ZM22.8966-7.15253Q24.2676-7.15253 25.2315-8.12319Q26.1955-9.09384 26.1955-10.4648Q26.1955-11.8009 25.2385-12.7648Q24.2816-13.7288 22.8966-13.7288Q21.5466-13.7288 20.5896-12.7715Q19.6326-11.8142 19.6193-10.4648Q19.6193-9.09384 20.5762-8.12319Q21.5332-7.15253 22.8966-7.15253ZM92.3554 2.7011Q95.9725 2.7011 98.9521 0.923698Q101.932-0.853705 103.709-3.83301Q105.486-6.81231 105.486-10.4648Q105.486-14.0818 103.709-17.0614Q101.932-20.041 98.9521-21.8184Q95.9725-23.5958 92.3554-23.5958Q88.7384-23.5958 85.7481-21.8184Q82.7578-20.041 80.9911-17.0614Q79.2244-14.0818 79.2244-10.4648Q79.2244-6.81231 80.9911-3.83301Q82.7578-0.853705 85.7481 0.923698Q88.7384 2.7011 92.3554 2.7011ZM92.3554-0.310689Q89.5411-0.310689 87.2363-1.66902Q84.9314-3.02734 83.5664-5.3389Q82.2014-7.65046 82.2014-10.4648Q82.2014-13.2442 83.5664-15.5558Q84.9314-17.8674 87.2363-19.2431Q89.5411-20.6189 92.3554-20.6189Q95.1837-20.6189 97.4883-19.2431Q99.7929-17.8674 101.158-15.5558Q102.524-13.2442 102.524-10.4648Q102.524-7.65046 101.158-5.3389Q99.7929-3.02734 97.4883-1.66902Q95.1837-0.310689 92.3554-0.310689ZM92.3554-7.15253Q93.6915-7.15253 94.6622-8.12319Q95.6328-9.09384 95.6328-10.4648Q95.6328-11.8009 94.6689-12.7648Q93.7049-13.7288 92.3554-13.7288Q90.9845-13.7288 90.045-12.7715Q89.1054-11.8142 89.092-10.4648Q89.0781-9.09384 90.0243-8.12319Q90.9705-7.15253 92.3554-7.15253ZM23.2792-8.88081L64.7483-8.88081Q65.574-8.88081 66.0652-9.13381Q66.5565-9.38681 67.1446-10.0371L86.8733-32.072L85.7014-35.5994L65.0857-12.4319Q64.8282-12.1738 64.6924-12.1112Q64.5567-12.0487 64.2497-12.0487L23.2792-12.0487ZM62.9572-71.5139Q62.9572-70.8362 63.424-70.3761Q63.8908-69.916 64.5545-69.916L75.3692-69.916Q75.9492-69.916 76.0823-69.4684L90.7382-10.0741L93.7677-10.8769L78.6214-71.3615Q78.3847-72.1873 77.7607-72.6426Q77.1366-73.0979 76.0624-73.0979L64.5545-73.0979Q63.8908-73.0979 63.424-72.6203Q62.9572-72.1428 62.9572-71.5139Z"/>
  </g>
  <g id="Ultralight-S" transform="matrix(1 0 0 1 502.531 696)">
   <path d="M22.4968 2.50626Q26.001 2.50626 28.9108 0.780106Q31.8207-0.946045 33.5239-3.83301Q35.2272-6.71997 35.2272-10.2699Q35.2272-13.7741 33.5239-16.6615Q31.8207-19.5488 28.9108-21.2749Q26.001-23.0011 22.4968-23.0011Q18.9919-23.0011 16.1049-21.2749Q13.2179-19.5488 11.4918-16.6615Q9.76562-13.7741 9.76562-10.2699Q9.76562-6.71997 11.4918-3.83301Q13.2179-0.946045 16.1049 0.780106Q18.9919 2.50626 22.4968 2.50626ZM22.4968 0.325012Q19.5595 0.325012 17.173-1.09482Q14.7865-2.51465 13.3438-4.92363Q11.9011-7.33261 11.9011-10.2699Q11.9011-13.1622 13.3438-15.5712Q14.7865-17.9802 17.173-19.4225Q19.5595-20.8649 22.4968-20.8649Q25.4341-20.8649 27.8412-19.4225Q30.2483-17.9802 31.67-15.5712Q33.0917-13.1622 33.0917-10.2699Q33.0917-7.3288 31.67-4.92172Q30.2483-2.51465 27.8412-1.09482Q25.4341 0.325012 22.4968 0.325012ZM22.4968-7.24487Q23.7549-7.24487 24.6368-8.12836Q25.5188-9.01184 25.5188-10.2699Q25.5188-11.483 24.6387-12.365Q23.7587-13.2469 22.4968-13.2469Q21.2799-13.2469 20.3999-12.3665Q19.5198-11.4861 19.5168-10.2699Q19.5168-9.01184 20.3968-8.12836Q21.2769-7.24487 22.4968-7.24487ZM91.8633 2.50626Q95.3674 2.50626 98.2548 0.780106Q101.142-0.946045 102.868-3.83301Q104.594-6.71997 104.594-10.2699Q104.594-13.7741 102.868-16.6615Q101.142-19.5488 98.2548-21.2749Q95.3674-23.0011 91.8633-23.0011Q88.3591-23.0011 85.4507-21.2749Q82.5424-19.5488 80.8372-16.6615Q79.1321-13.7741 79.1321-10.2699Q79.1321-6.71997 80.8372-3.83301Q82.5424-0.946045 85.4507 0.780106Q88.3591 2.50626 91.8633 2.50626ZM91.8633 0.325012Q88.9259 0.325012 86.5185-1.09482Q84.111-2.51465 82.6897-4.92363Q81.2683-7.33261 81.2683-10.2699Q81.2683-13.1622 82.6897-15.5712Q84.111-17.9802 86.5185-19.4225Q88.9259-20.8649 91.8633-20.8649Q94.8044-20.8649 97.2115-19.4225Q99.6185-17.9802 101.04-15.5712Q102.462-13.1622 102.462-10.2699Q102.462-7.33261 101.04-4.92363Q99.6185-2.51465 97.2115-1.09482Q94.8044 0.325012 91.8633 0.325012ZM91.8633-7.24487Q93.0763-7.24487 93.9598-8.12836Q94.8433-9.01184 94.8433-10.2699Q94.8433-11.483 93.9613-12.365Q93.0794-13.2469 91.8633-13.2469Q90.6052-13.2469 89.7476-12.3665Q88.8901-11.4861 88.887-10.2699Q88.8832-9.01184 89.7423-8.12836Q90.6013-7.24487 91.8633-7.24487ZM22.5922-9.17816L64.5638-9.17816Q65.2458-9.17816 65.5884-9.36966Q65.9309-9.56116 66.3345-10.0166L86.3914-32.5539L85.4759-34.7176L65.0139-11.7142Q64.7667-11.4662 64.6412-11.414Q64.5157-11.3617 64.2189-11.3617L22.5922-11.3617ZM62.8342-71.8216Q62.8342-71.3593 63.1523-71.0426Q63.4705-70.726 63.929-70.726L75.0923-70.726Q75.7133-70.726 75.8568-70.2477L90.7997-10.1357L92.8757-10.7025L77.6268-71.4539Q77.4208-72.1359 76.9352-72.5246Q76.4496-72.9134 75.6317-72.9134L63.929-72.9134Q63.4705-72.9134 63.1523-72.5742Q62.8342-72.2351 62.8342-71.8216Z"/>
  </g>
 </g>
</svg>
